solid innerCylinder
 facet normal  9.994533e-01  0.000000e+00  3.306337e-02
   outer loop
     vertex  1.496720e-01  2.500000e-02  9.913588e-03
     vertex  1.500000e-01 -2.500000e-02  0.000000e+00
     vertex  1.500000e-01  2.500000e-02  0.000000e+00
   endloop
 endfacet
 facet normal  9.994533e-01  0.000000e+00  3.306337e-02
   outer loop
     vertex  1.496720e-01  2.500000e-02  9.913588e-03
     vertex  1.496720e-01 -2.500000e-02  9.913588e-03
     vertex  1.500000e-01 -2.500000e-02  0.000000e+00
   endloop
 endfacet
 facet normal  9.950829e-01  0.000000e+00  9.904553e-02
   outer loop
     vertex  1.486896e-01  2.500000e-02  1.978383e-02
     vertex  1.486896e-01 -2.500000e-02  1.978383e-02
     vertex  1.496720e-01 -2.500000e-02  9.913588e-03
   endloop
 endfacet
 facet normal  9.950829e-01  0.000000e+00  9.904553e-02
   outer loop
     vertex  1.486896e-01  2.500000e-02  1.978383e-02
     vertex  1.496720e-01 -2.500000e-02  9.913588e-03
     vertex  1.496720e-01  2.500000e-02  9.913588e-03
   endloop
 endfacet
 facet normal  9.863613e-01  0.000000e+00  1.645946e-01
   outer loop
     vertex  1.470570e-01  2.500000e-02  2.956755e-02
     vertex  1.470570e-01 -2.500000e-02  2.956755e-02
     vertex  1.486896e-01 -2.500000e-02  1.978383e-02
   endloop
 endfacet
 facet normal  9.863613e-01  0.000000e+00  1.645946e-01
   outer loop
     vertex  1.470570e-01  2.500000e-02  2.956755e-02
     vertex  1.486896e-01 -2.500000e-02  1.978383e-02
     vertex  1.486896e-01  2.500000e-02  1.978383e-02
   endloop
 endfacet
 facet normal  9.733266e-01  0.000000e+00  2.294239e-01
   outer loop
     vertex  1.447813e-01  2.500000e-02  3.922199e-02
     vertex  1.447813e-01 -2.500000e-02  3.922199e-02
     vertex  1.470570e-01 -2.500000e-02  2.956755e-02
   endloop
 endfacet
 facet normal  9.733266e-01  0.000000e+00  2.294239e-01
   outer loop
     vertex  1.447813e-01  2.500000e-02  3.922199e-02
     vertex  1.470570e-01 -2.500000e-02  2.956755e-02
     vertex  1.470570e-01  2.500000e-02  2.956755e-02
   endloop
 endfacet
 facet normal  9.560358e-01  0.000000e+00  2.932500e-01
   outer loop
     vertex  1.418726e-01  2.500000e-02  4.870492e-02
     vertex  1.418726e-01 -2.500000e-02  4.870492e-02
     vertex  1.447813e-01 -2.500000e-02  3.922199e-02
   endloop
 endfacet
 facet normal  9.560358e-01  0.000000e+00  2.932500e-01
   outer loop
     vertex  1.418726e-01  2.500000e-02  4.870492e-02
     vertex  1.447813e-01 -2.500000e-02  3.922199e-02
     vertex  1.447813e-01  2.500000e-02  3.922199e-02
   endloop
 endfacet
 facet normal  9.345645e-01  0.000000e+00  3.557938e-01
   outer loop
     vertex  1.383435e-01  2.500000e-02  5.797488e-02
     vertex  1.383435e-01 -2.500000e-02  5.797488e-02
     vertex  1.418726e-01 -2.500000e-02  4.870492e-02
   endloop
 endfacet
 facet normal  9.345645e-01  0.000000e+00  3.557938e-01
   outer loop
     vertex  1.383435e-01  2.500000e-02  5.797488e-02
     vertex  1.418726e-01 -2.500000e-02  4.870492e-02
     vertex  1.418726e-01  2.500000e-02  4.870492e-02
   endloop
 endfacet
 facet normal  9.090065e-01  0.000000e+00  4.167819e-01
   outer loop
     vertex  1.342094e-01  2.500000e-02  6.699132e-02
     vertex  1.342094e-01 -2.500000e-02  6.699132e-02
     vertex  1.383435e-01 -2.500000e-02  5.797488e-02
   endloop
 endfacet
 facet normal  9.090065e-01  0.000000e+00  4.167819e-01
   outer loop
     vertex  1.342094e-01  2.500000e-02  6.699132e-02
     vertex  1.383435e-01 -2.500000e-02  5.797488e-02
     vertex  1.383435e-01  2.500000e-02  5.797488e-02
   endloop
 endfacet
 facet normal  8.794738e-01  0.000000e+00  4.759474e-01
   outer loop
     vertex  1.294885e-01  2.500000e-02  7.571483e-02
     vertex  1.294885e-01 -2.500000e-02  7.571483e-02
     vertex  1.342094e-01 -2.500000e-02  6.699132e-02
   endloop
 endfacet
 facet normal  8.794738e-01  0.000000e+00  4.759474e-01
   outer loop
     vertex  1.294885e-01  2.500000e-02  7.571483e-02
     vertex  1.342094e-01 -2.500000e-02  6.699132e-02
     vertex  1.342094e-01  2.500000e-02  6.699132e-02
   endloop
 endfacet
 facet normal  8.460953e-01  0.000000e+00  5.330317e-01
   outer loop
     vertex  1.242013e-01  2.500000e-02  8.410726e-02
     vertex  1.242013e-01 -2.500000e-02  8.410726e-02
     vertex  1.294885e-01 -2.500000e-02  7.571483e-02
   endloop
 endfacet
 facet normal  8.460953e-01  0.000000e+00  5.330317e-01
   outer loop
     vertex  1.242013e-01  2.500000e-02  8.410726e-02
     vertex  1.294885e-01 -2.500000e-02  7.571483e-02
     vertex  1.294885e-01  2.500000e-02  7.571483e-02
   endloop
 endfacet
 facet normal  8.090170e-01  0.000000e+00  5.877853e-01
   outer loop
     vertex  1.183711e-01  2.500000e-02  9.213191e-02
     vertex  1.183711e-01 -2.500000e-02  9.213191e-02
     vertex  1.242013e-01 -2.500000e-02  8.410726e-02
   endloop
 endfacet
 facet normal  8.090170e-01  0.000000e+00  5.877853e-01
   outer loop
     vertex  1.183711e-01  2.500000e-02  9.213191e-02
     vertex  1.242013e-01 -2.500000e-02  8.410726e-02
     vertex  1.242013e-01  2.500000e-02  8.410726e-02
   endloop
 endfacet
 facet normal  7.684011e-01  0.000000e+00  6.399685e-01
   outer loop
     vertex  1.120232e-01  2.500000e-02  9.975369e-02
     vertex  1.120232e-01 -2.500000e-02  9.975369e-02
     vertex  1.183711e-01 -2.500000e-02  9.213191e-02
   endloop
 endfacet
 facet normal  7.684011e-01  0.000000e+00  6.399685e-01
   outer loop
     vertex  1.120232e-01  2.500000e-02  9.975369e-02
     vertex  1.183711e-01 -2.500000e-02  9.213191e-02
     vertex  1.183711e-01  2.500000e-02  9.213191e-02
   endloop
 endfacet
 facet normal  7.244252e-01  0.000000e+00  6.893534e-01
   outer loop
     vertex  1.051855e-01  2.500000e-02  1.069393e-01
     vertex  1.051855e-01 -2.500000e-02  1.069393e-01
     vertex  1.120232e-01 -2.500000e-02  9.975369e-02
   endloop
 endfacet
 facet normal  7.244252e-01  0.000000e+00  6.893534e-01
   outer loop
     vertex  1.051855e-01  2.500000e-02  1.069393e-01
     vertex  1.120232e-01 -2.500000e-02  9.975369e-02
     vertex  1.120232e-01  2.500000e-02  9.975369e-02
   endloop
 endfacet
 facet normal  6.772816e-01  0.000000e+00  7.357239e-01
   outer loop
     vertex  9.788786e-02  2.500000e-02  1.136572e-01
     vertex  9.788786e-02 -2.500000e-02  1.136572e-01
     vertex  1.051855e-01 -2.500000e-02  1.069393e-01
   endloop
 endfacet
 facet normal  6.772816e-01  0.000000e+00  7.357239e-01
   outer loop
     vertex  9.788786e-02  2.500000e-02  1.136572e-01
     vertex  1.051855e-01 -2.500000e-02  1.069393e-01
     vertex  1.051855e-01  2.500000e-02  1.069393e-01
   endloop
 endfacet
 facet normal  6.271764e-01  0.000000e+00  7.788773e-01
   outer loop
     vertex  9.016217e-02  2.500000e-02  1.198782e-01
     vertex  9.016217e-02 -2.500000e-02  1.198782e-01
     vertex  9.788786e-02 -2.500000e-02  1.136572e-01
   endloop
 endfacet
 facet normal  6.271764e-01  0.000000e+00  7.788773e-01
   outer loop
     vertex  9.016217e-02  2.500000e-02  1.198782e-01
     vertex  9.788786e-02 -2.500000e-02  1.136572e-01
     vertex  9.788786e-02  2.500000e-02  1.136572e-01
   endloop
 endfacet
 facet normal  5.743287e-01  0.000000e+00  8.186248e-01
   outer loop
     vertex  8.204222e-02  2.500000e-02  1.255750e-01
     vertex  8.204222e-02 -2.500000e-02  1.255750e-01
     vertex  9.016217e-02 -2.500000e-02  1.198782e-01
   endloop
 endfacet
 facet normal  5.743287e-01  0.000000e+00  8.186248e-01
   outer loop
     vertex  8.204222e-02  2.500000e-02  1.255750e-01
     vertex  9.016217e-02 -2.500000e-02  1.198782e-01
     vertex  9.016217e-02  2.500000e-02  1.198782e-01
   endloop
 endfacet
 facet normal  5.189696e-01  0.000000e+00  8.547927e-01
   outer loop
     vertex  7.356353e-02  2.500000e-02  1.307226e-01
     vertex  7.356353e-02 -2.500000e-02  1.307226e-01
     vertex  8.204222e-02 -2.500000e-02  1.255750e-01
   endloop
 endfacet
 facet normal  5.189696e-01  0.000000e+00  8.547927e-01
   outer loop
     vertex  7.356353e-02  2.500000e-02  1.307226e-01
     vertex  8.204222e-02 -2.500000e-02  1.255750e-01
     vertex  8.204222e-02  2.500000e-02  1.255750e-01
   endloop
 endfacet
 facet normal  4.613412e-01  0.000000e+00  8.872228e-01
   outer loop
     vertex  6.476315e-02  2.500000e-02  1.352987e-01
     vertex  6.476315e-02 -2.500000e-02  1.352987e-01
     vertex  7.356353e-02 -2.500000e-02  1.307226e-01
   endloop
 endfacet
 facet normal  4.613412e-01  0.000000e+00  8.872228e-01
   outer loop
     vertex  6.476315e-02  2.500000e-02  1.352987e-01
     vertex  7.356353e-02 -2.500000e-02  1.307226e-01
     vertex  7.356353e-02  2.500000e-02  1.307226e-01
   endloop
 endfacet
 facet normal  4.016954e-01  0.000000e+00  9.157733e-01
   outer loop
     vertex  5.567959e-02  2.500000e-02  1.392831e-01
     vertex  5.567959e-02 -2.500000e-02  1.392831e-01
     vertex  6.476315e-02 -2.500000e-02  1.352987e-01
   endloop
 endfacet
 facet normal  4.016954e-01  0.000000e+00  9.157733e-01
   outer loop
     vertex  5.567959e-02  2.500000e-02  1.392831e-01
     vertex  6.476315e-02 -2.500000e-02  1.352987e-01
     vertex  6.476315e-02  2.500000e-02  1.352987e-01
   endloop
 endfacet
 facet normal  3.402932e-01  0.000000e+00  9.403194e-01
   outer loop
     vertex  4.635255e-02  2.500000e-02  1.426585e-01
     vertex  4.635255e-02 -2.500000e-02  1.426585e-01
     vertex  5.567959e-02 -2.500000e-02  1.392831e-01
   endloop
 endfacet
 facet normal  3.402932e-01  0.000000e+00  9.403194e-01
   outer loop
     vertex  4.635255e-02  2.500000e-02  1.426585e-01
     vertex  5.567959e-02 -2.500000e-02  1.392831e-01
     vertex  5.567959e-02  2.500000e-02  1.392831e-01
   endloop
 endfacet
 facet normal  2.774029e-01  0.000000e+00  9.607537e-01
   outer loop
     vertex  3.682282e-02  2.500000e-02  1.454100e-01
     vertex  3.682282e-02 -2.500000e-02  1.454100e-01
     vertex  4.635255e-02 -2.500000e-02  1.426585e-01
   endloop
 endfacet
 facet normal  2.774029e-01  0.000000e+00  9.607537e-01
   outer loop
     vertex  3.682282e-02  2.500000e-02  1.454100e-01
     vertex  4.635255e-02 -2.500000e-02  1.426585e-01
     vertex  4.635255e-02  2.500000e-02  1.426585e-01
   endloop
 endfacet
 facet normal  2.132996e-01  0.000000e+00  9.769868e-01
   outer loop
     vertex  2.713208e-02  2.500000e-02  1.475258e-01
     vertex  2.713208e-02 -2.500000e-02  1.475258e-01
     vertex  3.682282e-02 -2.500000e-02  1.454100e-01
   endloop
 endfacet
 facet normal  2.132996e-01  0.000000e+00  9.769868e-01
   outer loop
     vertex  2.713208e-02  2.500000e-02  1.475258e-01
     vertex  3.682282e-02 -2.500000e-02  1.454100e-01
     vertex  3.682282e-02  2.500000e-02  1.454100e-01
   endloop
 endfacet
 facet normal  1.482636e-01  0.000000e+00  9.889479e-01
   outer loop
     vertex  1.732270e-02  2.500000e-02  1.489964e-01
     vertex  1.732270e-02 -2.500000e-02  1.489964e-01
     vertex  2.713208e-02 -2.500000e-02  1.475258e-01
   endloop
 endfacet
 facet normal  8.257935e-02  0.000000e+00  9.965845e-01
   outer loop
     vertex  1.732270e-02  2.500000e-02  1.489964e-01
     vertex  7.437563e-03 -2.500000e-02  1.498155e-01
     vertex  1.732270e-02 -2.500000e-02  1.489964e-01
   endloop
 endfacet
 facet normal  1.482636e-01  0.000000e+00  9.889479e-01
   outer loop
     vertex  1.732270e-02  2.500000e-02  1.489964e-01
     vertex  2.713208e-02 -2.500000e-02  1.475258e-01
     vertex  2.713208e-02  2.500000e-02  1.475258e-01
   endloop
 endfacet
 facet normal  1.653394e-02  0.000000e+00  9.998633e-01
   outer loop
     vertex  7.437563e-03  2.500000e-02  1.498155e-01
     vertex -2.480092e-03 -2.500000e-02  1.499795e-01
     vertex  7.437563e-03 -2.500000e-02  1.498155e-01
   endloop
 endfacet
 facet normal  8.257935e-02  0.000000e+00  9.965845e-01
   outer loop
     vertex  7.437563e-03  2.500000e-02  1.498155e-01
     vertex  7.437563e-03 -2.500000e-02  1.498155e-01
     vertex  1.732270e-02  2.500000e-02  1.489964e-01
   endloop
 endfacet
 facet normal  1.653394e-02  0.000000e+00  9.998633e-01
   outer loop
     vertex -2.480092e-03  2.500000e-02  1.499795e-01
     vertex -2.480092e-03 -2.500000e-02  1.499795e-01
     vertex  7.437563e-03  2.500000e-02  1.498155e-01
   endloop
 endfacet
 facet normal -4.958375e-02  0.000000e+00  9.987700e-01
   outer loop
     vertex -1.238690e-02  2.500000e-02  1.494877e-01
     vertex -1.238690e-02 -2.500000e-02  1.494877e-01
     vertex -2.480092e-03 -2.500000e-02  1.499795e-01
   endloop
 endfacet
 facet normal -4.958375e-02  0.000000e+00  9.987700e-01
   outer loop
     vertex -1.238690e-02  2.500000e-02  1.494877e-01
     vertex -2.480092e-03 -2.500000e-02  1.499795e-01
     vertex -2.480092e-03  2.500000e-02  1.499795e-01
   endloop
 endfacet
 facet normal -1.154846e-01  0.000000e+00  9.933093e-01
   outer loop
     vertex -2.223955e-02  2.500000e-02  1.483422e-01
     vertex -2.223955e-02 -2.500000e-02  1.483422e-01
     vertex -1.238690e-02 -2.500000e-02  1.494877e-01
   endloop
 endfacet
 facet normal -1.154846e-01  0.000000e+00  9.933093e-01
   outer loop
     vertex -2.223955e-02  2.500000e-02  1.483422e-01
     vertex -1.238690e-02 -2.500000e-02  1.494877e-01
     vertex -1.238690e-02  2.500000e-02  1.494877e-01
   endloop
 endfacet
 facet normal -1.808805e-01  0.000000e+00  9.835051e-01
   outer loop
     vertex -3.199494e-02  2.500000e-02  1.465480e-01
     vertex -2.223955e-02 -2.500000e-02  1.483422e-01
     vertex -2.223955e-02  2.500000e-02  1.483422e-01
   endloop
 endfacet
 facet normal -1.808805e-01  0.000000e+00  9.835051e-01
   outer loop
     vertex -3.199494e-02  2.500000e-02  1.465480e-01
     vertex -3.199494e-02 -2.500000e-02  1.465480e-01
     vertex -2.223955e-02 -2.500000e-02  1.483422e-01
   endloop
 endfacet
 facet normal -2.454855e-01  0.000000e+00  9.694003e-01
   outer loop
     vertex -4.161044e-02  2.500000e-02  1.441131e-01
     vertex -3.199494e-02 -2.500000e-02  1.465480e-01
     vertex -3.199494e-02  2.500000e-02  1.465480e-01
   endloop
 endfacet
 facet normal -2.454855e-01  0.000000e+00  9.694003e-01
   outer loop
     vertex -4.161044e-02  2.500000e-02  1.441131e-01
     vertex -4.161044e-02 -2.500000e-02  1.441131e-01
     vertex -3.199494e-02 -2.500000e-02  1.465480e-01
   endloop
 endfacet
 facet normal -3.090170e-01  0.000000e+00  9.510565e-01
   outer loop
     vertex -5.104398e-02  2.500000e-02  1.410479e-01
     vertex -4.161044e-02 -2.500000e-02  1.441131e-01
     vertex -4.161044e-02  2.500000e-02  1.441131e-01
   endloop
 endfacet
 facet normal -3.090170e-01  0.000000e+00  9.510565e-01
   outer loop
     vertex -5.104398e-02  2.500000e-02  1.410479e-01
     vertex -5.104398e-02 -2.500000e-02  1.410479e-01
     vertex -4.161044e-02 -2.500000e-02  1.441131e-01
   endloop
 endfacet
 facet normal -3.711972e-01  0.000000e+00  9.285540e-01
   outer loop
     vertex -6.025431e-02  2.500000e-02  1.373660e-01
     vertex -5.104398e-02 -2.500000e-02  1.410479e-01
     vertex -5.104398e-02  2.500000e-02  1.410479e-01
   endloop
 endfacet
 facet normal -3.711972e-01  0.000000e+00  9.285540e-01
   outer loop
     vertex -6.025431e-02  2.500000e-02  1.373660e-01
     vertex -6.025431e-02 -2.500000e-02  1.373660e-01
     vertex -5.104398e-02 -2.500000e-02  1.410479e-01
   endloop
 endfacet
 facet normal -4.317544e-01  0.000000e+00  9.019912e-01
   outer loop
     vertex -6.920117e-02  2.500000e-02  1.330834e-01
     vertex -6.025431e-02 -2.500000e-02  1.373660e-01
     vertex -6.025431e-02  2.500000e-02  1.373660e-01
   endloop
 endfacet
 facet normal -4.317544e-01  0.000000e+00  9.019912e-01
   outer loop
     vertex -6.920117e-02  2.500000e-02  1.330834e-01
     vertex -6.920117e-02 -2.500000e-02  1.330834e-01
     vertex -6.025431e-02 -2.500000e-02  1.373660e-01
   endloop
 endfacet
 facet normal -4.904235e-01  0.000000e+00  8.714842e-01
   outer loop
     vertex -7.784544e-02  2.500000e-02  1.282189e-01
     vertex -6.920117e-02 -2.500000e-02  1.330834e-01
     vertex -6.920117e-02  2.500000e-02  1.330834e-01
   endloop
 endfacet
 facet normal -4.904235e-01  0.000000e+00  8.714842e-01
   outer loop
     vertex -7.784544e-02  2.500000e-02  1.282189e-01
     vertex -7.784544e-02 -2.500000e-02  1.282189e-01
     vertex -6.920117e-02 -2.500000e-02  1.330834e-01
   endloop
 endfacet
 facet normal -5.469482e-01  0.000000e+00  8.371665e-01
   outer loop
     vertex -8.614930e-02  2.500000e-02  1.227937e-01
     vertex -7.784544e-02 -2.500000e-02  1.282189e-01
     vertex -7.784544e-02  2.500000e-02  1.282189e-01
   endloop
 endfacet
 facet normal -5.469482e-01  0.000000e+00  8.371665e-01
   outer loop
     vertex -8.614930e-02  2.500000e-02  1.227937e-01
     vertex -8.614930e-02 -2.500000e-02  1.227937e-01
     vertex -7.784544e-02 -2.500000e-02  1.282189e-01
   endloop
 endfacet
 facet normal -6.010811e-01  0.000000e+00  7.991880e-01
   outer loop
     vertex -8.614930e-02  2.500000e-02  1.227937e-01
     vertex -9.407645e-02 -2.500000e-02  1.168316e-01
     vertex -8.614930e-02 -2.500000e-02  1.227937e-01
   endloop
 endfacet
 facet normal -6.010811e-01  0.000000e+00  7.991880e-01
   outer loop
     vertex -9.407645e-02  2.500000e-02  1.168316e-01
     vertex -9.407645e-02 -2.500000e-02  1.168316e-01
     vertex -8.614930e-02  2.500000e-02  1.227937e-01
   endloop
 endfacet
 facet normal -6.525858e-01  0.000000e+00  7.577149e-01
   outer loop
     vertex -1.015922e-01  2.500000e-02  1.103586e-01
     vertex -9.407645e-02 -2.500000e-02  1.168316e-01
     vertex -9.407645e-02  2.500000e-02  1.168316e-01
   endloop
 endfacet
 facet normal -6.525858e-01  0.000000e+00  7.577149e-01
   outer loop
     vertex -1.015922e-01  2.500000e-02  1.103586e-01
     vertex -1.015922e-01 -2.500000e-02  1.103586e-01
     vertex -9.407645e-02 -2.500000e-02  1.168316e-01
   endloop
 endfacet
 facet normal -7.012368e-01  0.000000e+00  7.129284e-01
   outer loop
     vertex -1.086638e-01  2.500000e-02  1.034030e-01
     vertex -1.086638e-01 -2.500000e-02  1.034030e-01
     vertex -1.015922e-01 -2.500000e-02  1.103586e-01
   endloop
 endfacet
 facet normal -7.468215e-01  0.000000e+00  6.650246e-01
   outer loop
     vertex -1.086638e-01  2.500000e-02  1.034030e-01
     vertex -1.152602e-01 -2.500000e-02  9.599528e-02
     vertex -1.086638e-01 -2.500000e-02  1.034030e-01
   endloop
 endfacet
 facet normal -7.012368e-01  0.000000e+00  7.129284e-01
   outer loop
     vertex -1.086638e-01  2.500000e-02  1.034030e-01
     vertex -1.015922e-01 -2.500000e-02  1.103586e-01
     vertex -1.015922e-01  2.500000e-02  1.103586e-01
   endloop
 endfacet
 facet normal -7.468215e-01  0.000000e+00  6.650246e-01
   outer loop
     vertex -1.152602e-01  2.500000e-02  9.599528e-02
     vertex -1.152602e-01 -2.500000e-02  9.599528e-02
     vertex -1.086638e-01  2.500000e-02  1.034030e-01
   endloop
 endfacet
 facet normal -7.891405e-01  0.000000e+00  6.142127e-01
   outer loop
     vertex -1.213525e-01  2.500000e-02  8.816779e-02
     vertex -1.213525e-01 -2.500000e-02  8.816779e-02
     vertex -1.152602e-01 -2.500000e-02  9.599528e-02
   endloop
 endfacet
 facet normal -7.891405e-01  0.000000e+00  6.142127e-01
   outer loop
     vertex -1.213525e-01  2.500000e-02  8.816779e-02
     vertex -1.152602e-01 -2.500000e-02  9.599528e-02
     vertex -1.152602e-01  2.500000e-02  9.599528e-02
   endloop
 endfacet
 facet normal -8.280088e-01  0.000000e+00  5.607151e-01
   outer loop
     vertex -1.269143e-01  2.500000e-02  7.995476e-02
     vertex -1.269143e-01 -2.500000e-02  7.995476e-02
     vertex -1.213525e-01 -2.500000e-02  8.816779e-02
   endloop
 endfacet
 facet normal -8.632565e-01  0.000000e+00  5.047655e-01
   outer loop
     vertex -1.269143e-01  2.500000e-02  7.995476e-02
     vertex -1.319211e-01 -2.500000e-02  7.139211e-02
     vertex -1.269143e-01 -2.500000e-02  7.995476e-02
   endloop
 endfacet
 facet normal -8.280088e-01  0.000000e+00  5.607151e-01
   outer loop
     vertex -1.269143e-01  2.500000e-02  7.995476e-02
     vertex -1.213525e-01 -2.500000e-02  8.816779e-02
     vertex -1.213525e-01  2.500000e-02  8.816779e-02
   endloop
 endfacet
 facet normal -8.632565e-01  0.000000e+00  5.047655e-01
   outer loop
     vertex -1.319211e-01  2.500000e-02  7.139211e-02
     vertex -1.319211e-01 -2.500000e-02  7.139211e-02
     vertex -1.269143e-01  2.500000e-02  7.995476e-02
   endloop
 endfacet
 facet normal -8.947293e-01  0.000000e+00  4.466088e-01
   outer loop
     vertex -1.363510e-01  2.500000e-02  6.251728e-02
     vertex -1.363510e-01 -2.500000e-02  6.251728e-02
     vertex -1.319211e-01 -2.500000e-02  7.139211e-02
   endloop
 endfacet
 facet normal -9.222898e-01  0.000000e+00  3.864992e-01
   outer loop
     vertex -1.363510e-01  2.500000e-02  6.251728e-02
     vertex -1.401847e-01 -2.500000e-02  5.336908e-02
     vertex -1.363510e-01 -2.500000e-02  6.251728e-02
   endloop
 endfacet
 facet normal -8.947293e-01  0.000000e+00  4.466088e-01
   outer loop
     vertex -1.363510e-01  2.500000e-02  6.251728e-02
     vertex -1.319211e-01 -2.500000e-02  7.139211e-02
     vertex -1.319211e-01  2.500000e-02  7.139211e-02
   endloop
 endfacet
 facet normal -9.222898e-01  0.000000e+00  3.864992e-01
   outer loop
     vertex -1.401847e-01  2.500000e-02  5.336908e-02
     vertex -1.401847e-01 -2.500000e-02  5.336908e-02
     vertex -1.363510e-01  2.500000e-02  6.251728e-02
   endloop
 endfacet
 facet normal -9.458172e-01  0.000000e+00  3.246995e-01
   outer loop
     vertex -1.434054e-01  2.500000e-02  4.398751e-02
     vertex -1.434054e-01 -2.500000e-02  4.398751e-02
     vertex -1.401847e-01 -2.500000e-02  5.336908e-02
   endloop
 endfacet
 facet normal -9.458172e-01  0.000000e+00  3.246995e-01
   outer loop
     vertex -1.434054e-01  2.500000e-02  4.398751e-02
     vertex -1.401847e-01 -2.500000e-02  5.336908e-02
     vertex -1.401847e-01  2.500000e-02  5.336908e-02
   endloop
 endfacet
 facet normal -9.652089e-01  0.000000e+00  2.614799e-01
   outer loop
     vertex -1.459990e-01  2.500000e-02  3.441359e-02
     vertex -1.459990e-01 -2.500000e-02  3.441359e-02
     vertex -1.434054e-01 -2.500000e-02  4.398751e-02
   endloop
 endfacet
 facet normal -9.803800e-01  0.000000e+00  1.971170e-01
   outer loop
     vertex -1.459990e-01  2.500000e-02  3.441359e-02
     vertex -1.479542e-01 -2.500000e-02  2.468919e-02
     vertex -1.459990e-01 -2.500000e-02  3.441359e-02
   endloop
 endfacet
 facet normal -9.652089e-01  0.000000e+00  2.614799e-01
   outer loop
     vertex -1.459990e-01  2.500000e-02  3.441359e-02
     vertex -1.434054e-01 -2.500000e-02  4.398751e-02
     vertex -1.434054e-01  2.500000e-02  4.398751e-02
   endloop
 endfacet
 facet normal -9.803800e-01  0.000000e+00  1.971170e-01
   outer loop
     vertex -1.479542e-01  2.500000e-02  2.468919e-02
     vertex -1.479542e-01 -2.500000e-02  2.468919e-02
     vertex -1.459990e-01  2.500000e-02  3.441359e-02
   endloop
 endfacet
 facet normal -9.912641e-01  0.000000e+00  1.318922e-01
   outer loop
     vertex -1.492624e-01  2.500000e-02  1.485683e-02
     vertex -1.492624e-01 -2.500000e-02  1.485683e-02
     vertex -1.479542e-01 -2.500000e-02  2.468919e-02
   endloop
 endfacet
 facet normal -9.978136e-01  0.000000e+00  6.609058e-02
   outer loop
     vertex -1.492624e-01  2.500000e-02  1.485683e-02
     vertex -1.499180e-01 -2.500000e-02  4.959505e-03
     vertex -1.492624e-01 -2.500000e-02  1.485683e-02
   endloop
 endfacet
 facet normal -9.912641e-01  0.000000e+00  1.318922e-01
   outer loop
     vertex -1.492624e-01  2.500000e-02  1.485683e-02
     vertex -1.479542e-01 -2.500000e-02  2.468919e-02
     vertex -1.479542e-01  2.500000e-02  2.468919e-02
   endloop
 endfacet
 facet normal -9.978136e-01  0.000000e+00  6.609058e-02
   outer loop
     vertex -1.499180e-01  2.500000e-02  4.959505e-03
     vertex -1.499180e-01 -2.500000e-02  4.959505e-03
     vertex -1.492624e-01  2.500000e-02  1.485683e-02
   endloop
 endfacet
 facet normal -1.000000e+00  0.000000e+00  0.000000e+00
   outer loop
     vertex -1.499180e-01  2.500000e-02 -4.959505e-03
     vertex -1.499180e-01 -2.500000e-02 -4.959505e-03
     vertex -1.499180e-01 -2.500000e-02  4.959505e-03
   endloop
 endfacet
 facet normal -9.978136e-01 -0.000000e+00 -6.609058e-02
   outer loop
     vertex -1.499180e-01  2.500000e-02 -4.959505e-03
     vertex -1.492624e-01 -2.500000e-02 -1.485683e-02
     vertex -1.499180e-01 -2.500000e-02 -4.959505e-03
   endloop
 endfacet
 facet normal -1.000000e+00  0.000000e+00  0.000000e+00
   outer loop
     vertex -1.499180e-01  2.500000e-02 -4.959505e-03
     vertex -1.499180e-01 -2.500000e-02  4.959505e-03
     vertex -1.499180e-01  2.500000e-02  4.959505e-03
   endloop
 endfacet
 facet normal -9.912641e-01 -0.000000e+00 -1.318922e-01
   outer loop
     vertex -1.492624e-01  2.500000e-02 -1.485683e-02
     vertex -1.479542e-01 -2.500000e-02 -2.468919e-02
     vertex -1.492624e-01 -2.500000e-02 -1.485683e-02
   endloop
 endfacet
 facet normal -9.978136e-01 -0.000000e+00 -6.609058e-02
   outer loop
     vertex -1.492624e-01  2.500000e-02 -1.485683e-02
     vertex -1.492624e-01 -2.500000e-02 -1.485683e-02
     vertex -1.499180e-01  2.500000e-02 -4.959505e-03
   endloop
 endfacet
 facet normal -9.912641e-01 -0.000000e+00 -1.318922e-01
   outer loop
     vertex -1.479542e-01  2.500000e-02 -2.468919e-02
     vertex -1.479542e-01 -2.500000e-02 -2.468919e-02
     vertex -1.492624e-01  2.500000e-02 -1.485683e-02
   endloop
 endfacet
 facet normal -9.803800e-01 -0.000000e+00 -1.971170e-01
   outer loop
     vertex -1.459990e-01  2.500000e-02 -3.441359e-02
     vertex -1.459990e-01 -2.500000e-02 -3.441359e-02
     vertex -1.479542e-01 -2.500000e-02 -2.468919e-02
   endloop
 endfacet
 facet normal -9.803800e-01  0.000000e+00 -1.971170e-01
   outer loop
     vertex -1.459990e-01  2.500000e-02 -3.441359e-02
     vertex -1.479542e-01 -2.500000e-02 -2.468919e-02
     vertex -1.479542e-01  2.500000e-02 -2.468919e-02
   endloop
 endfacet
 facet normal -9.652089e-01 -0.000000e+00 -2.614799e-01
   outer loop
     vertex -1.434054e-01  2.500000e-02 -4.398751e-02
     vertex -1.434054e-01 -2.500000e-02 -4.398751e-02
     vertex -1.459990e-01 -2.500000e-02 -3.441359e-02
   endloop
 endfacet
 facet normal -9.652089e-01  0.000000e+00 -2.614799e-01
   outer loop
     vertex -1.434054e-01  2.500000e-02 -4.398751e-02
     vertex -1.459990e-01 -2.500000e-02 -3.441359e-02
     vertex -1.459990e-01  2.500000e-02 -3.441359e-02
   endloop
 endfacet
 facet normal -9.458172e-01  0.000000e+00 -3.246995e-01
   outer loop
     vertex -1.401847e-01  2.500000e-02 -5.336908e-02
     vertex -1.434054e-01 -2.500000e-02 -4.398751e-02
     vertex -1.434054e-01  2.500000e-02 -4.398751e-02
   endloop
 endfacet
 facet normal -9.458172e-01 -0.000000e+00 -3.246995e-01
   outer loop
     vertex -1.401847e-01  2.500000e-02 -5.336908e-02
     vertex -1.401847e-01 -2.500000e-02 -5.336908e-02
     vertex -1.434054e-01 -2.500000e-02 -4.398751e-02
   endloop
 endfacet
 facet normal -9.222898e-01  0.000000e+00 -3.864992e-01
   outer loop
     vertex -1.363510e-01  2.500000e-02 -6.251728e-02
     vertex -1.401847e-01 -2.500000e-02 -5.336908e-02
     vertex -1.401847e-01  2.500000e-02 -5.336908e-02
   endloop
 endfacet
 facet normal -9.222898e-01 -0.000000e+00 -3.864992e-01
   outer loop
     vertex -1.363510e-01  2.500000e-02 -6.251728e-02
     vertex -1.363510e-01 -2.500000e-02 -6.251728e-02
     vertex -1.401847e-01 -2.500000e-02 -5.336908e-02
   endloop
 endfacet
 facet normal -8.947293e-01 -0.000000e+00 -4.466088e-01
   outer loop
     vertex -1.363510e-01  2.500000e-02 -6.251728e-02
     vertex -1.319211e-01 -2.500000e-02 -7.139211e-02
     vertex -1.363510e-01 -2.500000e-02 -6.251728e-02
   endloop
 endfacet
 facet normal -8.947293e-01 -0.000000e+00 -4.466088e-01
   outer loop
     vertex -1.319211e-01  2.500000e-02 -7.139211e-02
     vertex -1.319211e-01 -2.500000e-02 -7.139211e-02
     vertex -1.363510e-01  2.500000e-02 -6.251728e-02
   endloop
 endfacet
 facet normal -8.632565e-01 -0.000000e+00 -5.047655e-01
   outer loop
     vertex -1.319211e-01  2.500000e-02 -7.139211e-02
     vertex -1.269143e-01 -2.500000e-02 -7.995476e-02
     vertex -1.319211e-01 -2.500000e-02 -7.139211e-02
   endloop
 endfacet
 facet normal -8.632565e-01 -0.000000e+00 -5.047655e-01
   outer loop
     vertex -1.269143e-01  2.500000e-02 -7.995476e-02
     vertex -1.269143e-01 -2.500000e-02 -7.995476e-02
     vertex -1.319211e-01  2.500000e-02 -7.139211e-02
   endloop
 endfacet
 facet normal -8.280088e-01  0.000000e+00 -5.607151e-01
   outer loop
     vertex -1.213525e-01  2.500000e-02 -8.816779e-02
     vertex -1.269143e-01 -2.500000e-02 -7.995476e-02
     vertex -1.269143e-01  2.500000e-02 -7.995476e-02
   endloop
 endfacet
 facet normal -8.280088e-01 -0.000000e+00 -5.607151e-01
   outer loop
     vertex -1.213525e-01  2.500000e-02 -8.816779e-02
     vertex -1.213525e-01 -2.500000e-02 -8.816779e-02
     vertex -1.269143e-01 -2.500000e-02 -7.995476e-02
   endloop
 endfacet
 facet normal -7.891405e-01  0.000000e+00 -6.142127e-01
   outer loop
     vertex -1.152602e-01  2.500000e-02 -9.599528e-02
     vertex -1.213525e-01 -2.500000e-02 -8.816779e-02
     vertex -1.213525e-01  2.500000e-02 -8.816779e-02
   endloop
 endfacet
 facet normal -7.891405e-01 -0.000000e+00 -6.142127e-01
   outer loop
     vertex -1.152602e-01  2.500000e-02 -9.599528e-02
     vertex -1.152602e-01 -2.500000e-02 -9.599528e-02
     vertex -1.213525e-01 -2.500000e-02 -8.816779e-02
   endloop
 endfacet
 facet normal -7.468215e-01  0.000000e+00 -6.650246e-01
   outer loop
     vertex -1.086638e-01  2.500000e-02 -1.034030e-01
     vertex -1.152602e-01 -2.500000e-02 -9.599528e-02
     vertex -1.152602e-01  2.500000e-02 -9.599528e-02
   endloop
 endfacet
 facet normal -7.468215e-01 -0.000000e+00 -6.650246e-01
   outer loop
     vertex -1.086638e-01  2.500000e-02 -1.034030e-01
     vertex -1.086638e-01 -2.500000e-02 -1.034030e-01
     vertex -1.152602e-01 -2.500000e-02 -9.599528e-02
   endloop
 endfacet
 facet normal -7.012368e-01 -0.000000e+00 -7.129284e-01
   outer loop
     vertex -1.086638e-01  2.500000e-02 -1.034030e-01
     vertex -1.015922e-01 -2.500000e-02 -1.103586e-01
     vertex -1.086638e-01 -2.500000e-02 -1.034030e-01
   endloop
 endfacet
 facet normal -7.012368e-01 -0.000000e+00 -7.129284e-01
   outer loop
     vertex -1.015922e-01  2.500000e-02 -1.103586e-01
     vertex -1.015922e-01 -2.500000e-02 -1.103586e-01
     vertex -1.086638e-01  2.500000e-02 -1.034030e-01
   endloop
 endfacet
 facet normal -6.525858e-01  0.000000e+00 -7.577149e-01
   outer loop
     vertex -9.407645e-02  2.500000e-02 -1.168316e-01
     vertex -1.015922e-01 -2.500000e-02 -1.103586e-01
     vertex -1.015922e-01  2.500000e-02 -1.103586e-01
   endloop
 endfacet
 facet normal -6.525858e-01 -0.000000e+00 -7.577149e-01
   outer loop
     vertex -9.407645e-02  2.500000e-02 -1.168316e-01
     vertex -9.407645e-02 -2.500000e-02 -1.168316e-01
     vertex -1.015922e-01 -2.500000e-02 -1.103586e-01
   endloop
 endfacet
 facet normal -6.010811e-01  0.000000e+00 -7.991880e-01
   outer loop
     vertex -8.614930e-02  2.500000e-02 -1.227937e-01
     vertex -9.407645e-02 -2.500000e-02 -1.168316e-01
     vertex -9.407645e-02  2.500000e-02 -1.168316e-01
   endloop
 endfacet
 facet normal -6.010811e-01 -0.000000e+00 -7.991880e-01
   outer loop
     vertex -8.614930e-02  2.500000e-02 -1.227937e-01
     vertex -8.614930e-02 -2.500000e-02 -1.227937e-01
     vertex -9.407645e-02 -2.500000e-02 -1.168316e-01
   endloop
 endfacet
 facet normal -5.469482e-01  0.000000e+00 -8.371665e-01
   outer loop
     vertex -7.784544e-02  2.500000e-02 -1.282189e-01
     vertex -8.614930e-02 -2.500000e-02 -1.227937e-01
     vertex -8.614930e-02  2.500000e-02 -1.227937e-01
   endloop
 endfacet
 facet normal -5.469482e-01 -0.000000e+00 -8.371665e-01
   outer loop
     vertex -7.784544e-02  2.500000e-02 -1.282189e-01
     vertex -7.784544e-02 -2.500000e-02 -1.282189e-01
     vertex -8.614930e-02 -2.500000e-02 -1.227937e-01
   endloop
 endfacet
 facet normal -4.904235e-01  0.000000e+00 -8.714842e-01
   outer loop
     vertex -6.920117e-02  2.500000e-02 -1.330834e-01
     vertex -7.784544e-02 -2.500000e-02 -1.282189e-01
     vertex -7.784544e-02  2.500000e-02 -1.282189e-01
   endloop
 endfacet
 facet normal -4.904235e-01 -0.000000e+00 -8.714842e-01
   outer loop
     vertex -6.920117e-02  2.500000e-02 -1.330834e-01
     vertex -6.920117e-02 -2.500000e-02 -1.330834e-01
     vertex -7.784544e-02 -2.500000e-02 -1.282189e-01
   endloop
 endfacet
 facet normal -4.317544e-01  0.000000e+00 -9.019912e-01
   outer loop
     vertex -6.025431e-02  2.500000e-02 -1.373660e-01
     vertex -6.920117e-02 -2.500000e-02 -1.330834e-01
     vertex -6.920117e-02  2.500000e-02 -1.330834e-01
   endloop
 endfacet
 facet normal -4.317544e-01 -0.000000e+00 -9.019912e-01
   outer loop
     vertex -6.025431e-02  2.500000e-02 -1.373660e-01
     vertex -6.025431e-02 -2.500000e-02 -1.373660e-01
     vertex -6.920117e-02 -2.500000e-02 -1.330834e-01
   endloop
 endfacet
 facet normal -3.711972e-01  0.000000e+00 -9.285540e-01
   outer loop
     vertex -5.104398e-02  2.500000e-02 -1.410479e-01
     vertex -6.025431e-02 -2.500000e-02 -1.373660e-01
     vertex -6.025431e-02  2.500000e-02 -1.373660e-01
   endloop
 endfacet
 facet normal -3.711972e-01 -0.000000e+00 -9.285540e-01
   outer loop
     vertex -5.104398e-02  2.500000e-02 -1.410479e-01
     vertex -5.104398e-02 -2.500000e-02 -1.410479e-01
     vertex -6.025431e-02 -2.500000e-02 -1.373660e-01
   endloop
 endfacet
 facet normal -3.090170e-01  0.000000e+00 -9.510565e-01
   outer loop
     vertex -4.161044e-02  2.500000e-02 -1.441131e-01
     vertex -5.104398e-02 -2.500000e-02 -1.410479e-01
     vertex -5.104398e-02  2.500000e-02 -1.410479e-01
   endloop
 endfacet
 facet normal -3.090170e-01 -0.000000e+00 -9.510565e-01
   outer loop
     vertex -4.161044e-02  2.500000e-02 -1.441131e-01
     vertex -4.161044e-02 -2.500000e-02 -1.441131e-01
     vertex -5.104398e-02 -2.500000e-02 -1.410479e-01
   endloop
 endfacet
 facet normal -2.454855e-01  0.000000e+00 -9.694003e-01
   outer loop
     vertex -3.199494e-02  2.500000e-02 -1.465480e-01
     vertex -4.161044e-02 -2.500000e-02 -1.441131e-01
     vertex -4.161044e-02  2.500000e-02 -1.441131e-01
   endloop
 endfacet
 facet normal -2.454855e-01 -0.000000e+00 -9.694003e-01
   outer loop
     vertex -3.199494e-02  2.500000e-02 -1.465480e-01
     vertex -3.199494e-02 -2.500000e-02 -1.465480e-01
     vertex -4.161044e-02 -2.500000e-02 -1.441131e-01
   endloop
 endfacet
 facet normal -1.808805e-01 -0.000000e+00 -9.835051e-01
   outer loop
     vertex -2.223955e-02  2.500000e-02 -1.483422e-01
     vertex -2.223955e-02 -2.500000e-02 -1.483422e-01
     vertex -3.199494e-02 -2.500000e-02 -1.465480e-01
   endloop
 endfacet
 facet normal -1.808805e-01  0.000000e+00 -9.835051e-01
   outer loop
     vertex -2.223955e-02  2.500000e-02 -1.483422e-01
     vertex -3.199494e-02 -2.500000e-02 -1.465480e-01
     vertex -3.199494e-02  2.500000e-02 -1.465480e-01
   endloop
 endfacet
 facet normal -1.154846e-01  0.000000e+00 -9.933093e-01
   outer loop
     vertex -1.238690e-02  2.500000e-02 -1.494877e-01
     vertex -2.223955e-02 -2.500000e-02 -1.483422e-01
     vertex -2.223955e-02  2.500000e-02 -1.483422e-01
   endloop
 endfacet
 facet normal -1.154846e-01 -0.000000e+00 -9.933093e-01
   outer loop
     vertex -1.238690e-02  2.500000e-02 -1.494877e-01
     vertex -1.238690e-02 -2.500000e-02 -1.494877e-01
     vertex -2.223955e-02 -2.500000e-02 -1.483422e-01
   endloop
 endfacet
 facet normal -4.958375e-02 -0.000000e+00 -9.987700e-01
   outer loop
     vertex -2.480092e-03  2.500000e-02 -1.499795e-01
     vertex -2.480092e-03 -2.500000e-02 -1.499795e-01
     vertex -1.238690e-02 -2.500000e-02 -1.494877e-01
   endloop
 endfacet
 facet normal -4.958375e-02  0.000000e+00 -9.987700e-01
   outer loop
     vertex -2.480092e-03  2.500000e-02 -1.499795e-01
     vertex -1.238690e-02 -2.500000e-02 -1.494877e-01
     vertex -1.238690e-02  2.500000e-02 -1.494877e-01
   endloop
 endfacet
 facet normal  1.653394e-02  0.000000e+00 -9.998633e-01
   outer loop
     vertex  7.437563e-03  2.500000e-02 -1.498155e-01
     vertex  7.437563e-03 -2.500000e-02 -1.498155e-01
     vertex -2.480092e-03 -2.500000e-02 -1.499795e-01
   endloop
 endfacet
 facet normal  1.653394e-02  0.000000e+00 -9.998633e-01
   outer loop
     vertex  7.437563e-03  2.500000e-02 -1.498155e-01
     vertex -2.480092e-03 -2.500000e-02 -1.499795e-01
     vertex -2.480092e-03  2.500000e-02 -1.499795e-01
   endloop
 endfacet
 facet normal  8.257935e-02  0.000000e+00 -9.965845e-01
   outer loop
     vertex  1.732270e-02  2.500000e-02 -1.489964e-01
     vertex  1.732270e-02 -2.500000e-02 -1.489964e-01
     vertex  7.437563e-03 -2.500000e-02 -1.498155e-01
   endloop
 endfacet
 facet normal  8.257935e-02  0.000000e+00 -9.965845e-01
   outer loop
     vertex  1.732270e-02  2.500000e-02 -1.489964e-01
     vertex  7.437563e-03 -2.500000e-02 -1.498155e-01
     vertex  7.437563e-03  2.500000e-02 -1.498155e-01
   endloop
 endfacet
 facet normal  1.482636e-01  0.000000e+00 -9.889479e-01
   outer loop
     vertex  2.713208e-02  2.500000e-02 -1.475258e-01
     vertex  2.713208e-02 -2.500000e-02 -1.475258e-01
     vertex  1.732270e-02 -2.500000e-02 -1.489964e-01
   endloop
 endfacet
 facet normal  1.482636e-01  0.000000e+00 -9.889479e-01
   outer loop
     vertex  2.713208e-02  2.500000e-02 -1.475258e-01
     vertex  1.732270e-02 -2.500000e-02 -1.489964e-01
     vertex  1.732270e-02  2.500000e-02 -1.489964e-01
   endloop
 endfacet
 facet normal  2.132996e-01  0.000000e+00 -9.769868e-01
   outer loop
     vertex  3.682282e-02  2.500000e-02 -1.454100e-01
     vertex  3.682282e-02 -2.500000e-02 -1.454100e-01
     vertex  2.713208e-02 -2.500000e-02 -1.475258e-01
   endloop
 endfacet
 facet normal  2.132996e-01  0.000000e+00 -9.769868e-01
   outer loop
     vertex  3.682282e-02  2.500000e-02 -1.454100e-01
     vertex  2.713208e-02 -2.500000e-02 -1.475258e-01
     vertex  2.713208e-02  2.500000e-02 -1.475258e-01
   endloop
 endfacet
 facet normal  2.774029e-01  0.000000e+00 -9.607537e-01
   outer loop
     vertex  4.635255e-02  2.500000e-02 -1.426585e-01
     vertex  4.635255e-02 -2.500000e-02 -1.426585e-01
     vertex  3.682282e-02 -2.500000e-02 -1.454100e-01
   endloop
 endfacet
 facet normal  2.774029e-01  0.000000e+00 -9.607537e-01
   outer loop
     vertex  4.635255e-02  2.500000e-02 -1.426585e-01
     vertex  3.682282e-02 -2.500000e-02 -1.454100e-01
     vertex  3.682282e-02  2.500000e-02 -1.454100e-01
   endloop
 endfacet
 facet normal  3.402932e-01  0.000000e+00 -9.403194e-01
   outer loop
     vertex  5.567959e-02  2.500000e-02 -1.392831e-01
     vertex  5.567959e-02 -2.500000e-02 -1.392831e-01
     vertex  4.635255e-02 -2.500000e-02 -1.426585e-01
   endloop
 endfacet
 facet normal  3.402932e-01  0.000000e+00 -9.403194e-01
   outer loop
     vertex  5.567959e-02  2.500000e-02 -1.392831e-01
     vertex  4.635255e-02 -2.500000e-02 -1.426585e-01
     vertex  4.635255e-02  2.500000e-02 -1.426585e-01
   endloop
 endfacet
 facet normal  4.016954e-01  0.000000e+00 -9.157733e-01
   outer loop
     vertex  6.476315e-02  2.500000e-02 -1.352987e-01
     vertex  5.567959e-02 -2.500000e-02 -1.392831e-01
     vertex  5.567959e-02  2.500000e-02 -1.392831e-01
   endloop
 endfacet
 facet normal  4.016954e-01  0.000000e+00 -9.157733e-01
   outer loop
     vertex  6.476315e-02  2.500000e-02 -1.352987e-01
     vertex  6.476315e-02 -2.500000e-02 -1.352987e-01
     vertex  5.567959e-02 -2.500000e-02 -1.392831e-01
   endloop
 endfacet
 facet normal  4.613412e-01  0.000000e+00 -8.872228e-01
   outer loop
     vertex  7.356353e-02  2.500000e-02 -1.307226e-01
     vertex  6.476315e-02 -2.500000e-02 -1.352987e-01
     vertex  6.476315e-02  2.500000e-02 -1.352987e-01
   endloop
 endfacet
 facet normal  4.613412e-01  0.000000e+00 -8.872228e-01
   outer loop
     vertex  7.356353e-02  2.500000e-02 -1.307226e-01
     vertex  7.356353e-02 -2.500000e-02 -1.307226e-01
     vertex  6.476315e-02 -2.500000e-02 -1.352987e-01
   endloop
 endfacet
 facet normal  5.189696e-01  0.000000e+00 -8.547927e-01
   outer loop
     vertex  8.204222e-02  2.500000e-02 -1.255750e-01
     vertex  7.356353e-02 -2.500000e-02 -1.307226e-01
     vertex  7.356353e-02  2.500000e-02 -1.307226e-01
   endloop
 endfacet
 facet normal  5.189696e-01  0.000000e+00 -8.547927e-01
   outer loop
     vertex  8.204222e-02  2.500000e-02 -1.255750e-01
     vertex  8.204222e-02 -2.500000e-02 -1.255750e-01
     vertex  7.356353e-02 -2.500000e-02 -1.307226e-01
   endloop
 endfacet
 facet normal  5.743287e-01  0.000000e+00 -8.186248e-01
   outer loop
     vertex  9.016217e-02  2.500000e-02 -1.198782e-01
     vertex  8.204222e-02 -2.500000e-02 -1.255750e-01
     vertex  8.204222e-02  2.500000e-02 -1.255750e-01
   endloop
 endfacet
 facet normal  5.743287e-01  0.000000e+00 -8.186248e-01
   outer loop
     vertex  9.016217e-02  2.500000e-02 -1.198782e-01
     vertex  9.016217e-02 -2.500000e-02 -1.198782e-01
     vertex  8.204222e-02 -2.500000e-02 -1.255750e-01
   endloop
 endfacet
 facet normal  6.271764e-01  0.000000e+00 -7.788773e-01
   outer loop
     vertex  9.788786e-02  2.500000e-02 -1.136572e-01
     vertex  9.016217e-02 -2.500000e-02 -1.198782e-01
     vertex  9.016217e-02  2.500000e-02 -1.198782e-01
   endloop
 endfacet
 facet normal  6.271764e-01  0.000000e+00 -7.788773e-01
   outer loop
     vertex  9.788786e-02  2.500000e-02 -1.136572e-01
     vertex  9.788786e-02 -2.500000e-02 -1.136572e-01
     vertex  9.016217e-02 -2.500000e-02 -1.198782e-01
   endloop
 endfacet
 facet normal  6.772816e-01  0.000000e+00 -7.357239e-01
   outer loop
     vertex  1.051855e-01  2.500000e-02 -1.069393e-01
     vertex  9.788786e-02 -2.500000e-02 -1.136572e-01
     vertex  9.788786e-02  2.500000e-02 -1.136572e-01
   endloop
 endfacet
 facet normal  6.772816e-01  0.000000e+00 -7.357239e-01
   outer loop
     vertex  1.051855e-01  2.500000e-02 -1.069393e-01
     vertex  1.051855e-01 -2.500000e-02 -1.069393e-01
     vertex  9.788786e-02 -2.500000e-02 -1.136572e-01
   endloop
 endfacet
 facet normal  7.244252e-01  0.000000e+00 -6.893534e-01
   outer loop
     vertex  1.120232e-01  2.500000e-02 -9.975369e-02
     vertex  1.051855e-01 -2.500000e-02 -1.069393e-01
     vertex  1.051855e-01  2.500000e-02 -1.069393e-01
   endloop
 endfacet
 facet normal  7.244252e-01  0.000000e+00 -6.893534e-01
   outer loop
     vertex  1.120232e-01  2.500000e-02 -9.975369e-02
     vertex  1.120232e-01 -2.500000e-02 -9.975369e-02
     vertex  1.051855e-01 -2.500000e-02 -1.069393e-01
   endloop
 endfacet
 facet normal  7.684011e-01  0.000000e+00 -6.399685e-01
   outer loop
     vertex  1.120232e-01  2.500000e-02 -9.975369e-02
     vertex  1.183711e-01 -2.500000e-02 -9.213191e-02
     vertex  1.120232e-01 -2.500000e-02 -9.975369e-02
   endloop
 endfacet
 facet normal  7.684011e-01  0.000000e+00 -6.399685e-01
   outer loop
     vertex  1.183711e-01  2.500000e-02 -9.213191e-02
     vertex  1.183711e-01 -2.500000e-02 -9.213191e-02
     vertex  1.120232e-01  2.500000e-02 -9.975369e-02
   endloop
 endfacet
 facet normal  8.090170e-01  0.000000e+00 -5.877853e-01
   outer loop
     vertex  1.242013e-01  2.500000e-02 -8.410726e-02
     vertex  1.183711e-01 -2.500000e-02 -9.213191e-02
     vertex  1.183711e-01  2.500000e-02 -9.213191e-02
   endloop
 endfacet
 facet normal  8.090170e-01  0.000000e+00 -5.877853e-01
   outer loop
     vertex  1.242013e-01  2.500000e-02 -8.410726e-02
     vertex  1.242013e-01 -2.500000e-02 -8.410726e-02
     vertex  1.183711e-01 -2.500000e-02 -9.213191e-02
   endloop
 endfacet
 facet normal  8.460953e-01  0.000000e+00 -5.330317e-01
   outer loop
     vertex  1.294885e-01  2.500000e-02 -7.571483e-02
     vertex  1.242013e-01 -2.500000e-02 -8.410726e-02
     vertex  1.242013e-01  2.500000e-02 -8.410726e-02
   endloop
 endfacet
 facet normal  8.460953e-01  0.000000e+00 -5.330317e-01
   outer loop
     vertex  1.294885e-01  2.500000e-02 -7.571483e-02
     vertex  1.294885e-01 -2.500000e-02 -7.571483e-02
     vertex  1.242013e-01 -2.500000e-02 -8.410726e-02
   endloop
 endfacet
 facet normal  8.794738e-01  0.000000e+00 -4.759474e-01
   outer loop
     vertex  1.342094e-01  2.500000e-02 -6.699132e-02
     vertex  1.294885e-01 -2.500000e-02 -7.571483e-02
     vertex  1.294885e-01  2.500000e-02 -7.571483e-02
   endloop
 endfacet
 facet normal  8.794738e-01  0.000000e+00 -4.759474e-01
   outer loop
     vertex  1.342094e-01  2.500000e-02 -6.699132e-02
     vertex  1.342094e-01 -2.500000e-02 -6.699132e-02
     vertex  1.294885e-01 -2.500000e-02 -7.571483e-02
   endloop
 endfacet
 facet normal  9.090065e-01  0.000000e+00 -4.167819e-01
   outer loop
     vertex  1.383435e-01  2.500000e-02 -5.797488e-02
     vertex  1.342094e-01 -2.500000e-02 -6.699132e-02
     vertex  1.342094e-01  2.500000e-02 -6.699132e-02
   endloop
 endfacet
 facet normal  9.090065e-01  0.000000e+00 -4.167819e-01
   outer loop
     vertex  1.383435e-01  2.500000e-02 -5.797488e-02
     vertex  1.383435e-01 -2.500000e-02 -5.797488e-02
     vertex  1.342094e-01 -2.500000e-02 -6.699132e-02
   endloop
 endfacet
 facet normal  9.345645e-01  0.000000e+00 -3.557938e-01
   outer loop
     vertex  1.383435e-01  2.500000e-02 -5.797488e-02
     vertex  1.418726e-01 -2.500000e-02 -4.870492e-02
     vertex  1.383435e-01 -2.500000e-02 -5.797488e-02
   endloop
 endfacet
 facet normal  9.345645e-01  0.000000e+00 -3.557938e-01
   outer loop
     vertex  1.418726e-01  2.500000e-02 -4.870492e-02
     vertex  1.418726e-01 -2.500000e-02 -4.870492e-02
     vertex  1.383435e-01  2.500000e-02 -5.797488e-02
   endloop
 endfacet
 facet normal  9.560358e-01  0.000000e+00 -2.932500e-01
   outer loop
     vertex  1.447813e-01  2.500000e-02 -3.922199e-02
     vertex  1.418726e-01 -2.500000e-02 -4.870492e-02
     vertex  1.418726e-01  2.500000e-02 -4.870492e-02
   endloop
 endfacet
 facet normal  9.560358e-01  0.000000e+00 -2.932500e-01
   outer loop
     vertex  1.447813e-01  2.500000e-02 -3.922199e-02
     vertex  1.447813e-01 -2.500000e-02 -3.922199e-02
     vertex  1.418726e-01 -2.500000e-02 -4.870492e-02
   endloop
 endfacet
 facet normal  9.733266e-01  0.000000e+00 -2.294239e-01
   outer loop
     vertex  1.447813e-01  2.500000e-02 -3.922199e-02
     vertex  1.470570e-01 -2.500000e-02 -2.956755e-02
     vertex  1.447813e-01 -2.500000e-02 -3.922199e-02
   endloop
 endfacet
 facet normal  9.733266e-01  0.000000e+00 -2.294239e-01
   outer loop
     vertex  1.470570e-01  2.500000e-02 -2.956755e-02
     vertex  1.470570e-01 -2.500000e-02 -2.956755e-02
     vertex  1.447813e-01  2.500000e-02 -3.922199e-02
   endloop
 endfacet
 facet normal  9.863613e-01  0.000000e+00 -1.645946e-01
   outer loop
     vertex  1.486896e-01  2.500000e-02 -1.978383e-02
     vertex  1.470570e-01 -2.500000e-02 -2.956755e-02
     vertex  1.470570e-01  2.500000e-02 -2.956755e-02
   endloop
 endfacet
 facet normal  9.863613e-01  0.000000e+00 -1.645946e-01
   outer loop
     vertex  1.486896e-01  2.500000e-02 -1.978383e-02
     vertex  1.486896e-01 -2.500000e-02 -1.978383e-02
     vertex  1.470570e-01 -2.500000e-02 -2.956755e-02
   endloop
 endfacet
 facet normal  9.950829e-01  0.000000e+00 -9.904553e-02
   outer loop
     vertex  1.496720e-01  2.500000e-02 -9.913588e-03
     vertex  1.486896e-01 -2.500000e-02 -1.978383e-02
     vertex  1.486896e-01  2.500000e-02 -1.978383e-02
   endloop
 endfacet
 facet normal  9.950829e-01  0.000000e+00 -9.904553e-02
   outer loop
     vertex  1.496720e-01  2.500000e-02 -9.913588e-03
     vertex  1.496720e-01 -2.500000e-02 -9.913588e-03
     vertex  1.486896e-01 -2.500000e-02 -1.978383e-02
   endloop
 endfacet
 facet normal  9.994533e-01  0.000000e+00 -3.306337e-02
   outer loop
     vertex  1.496720e-01  2.500000e-02 -9.913588e-03
     vertex  1.500000e-01 -2.500000e-02  0.000000e+00
     vertex  1.496720e-01 -2.500000e-02 -9.913588e-03
   endloop
 endfacet
 facet normal  9.994533e-01  0.000000e+00 -3.306337e-02
   outer loop
     vertex  1.500000e-01  2.500000e-02  0.000000e+00
     vertex  1.500000e-01 -2.500000e-02  0.000000e+00
     vertex  1.496720e-01  2.500000e-02 -9.913588e-03
   endloop
 endfacet
 facet normal  0.000000e+00  1.000000e+00  0.000000e+00
   outer loop
     vertex  1.051855e-01  2.500000e-02 -1.069393e-01
     vertex -1.152602e-01  2.500000e-02  9.599528e-02
     vertex -1.086638e-01  2.500000e-02  1.034030e-01
   endloop
 endfacet
 facet normal  0.000000e+00  1.000000e+00  0.000000e+00
   outer loop
     vertex  1.051855e-01  2.500000e-02 -1.069393e-01
     vertex -1.213525e-01  2.500000e-02  8.816779e-02
     vertex -1.152602e-01  2.500000e-02  9.599528e-02
   endloop
 endfacet
 facet normal  0.000000e+00  1.000000e+00  0.000000e+00
   outer loop
     vertex  1.051855e-01  2.500000e-02 -1.069393e-01
     vertex -1.269143e-01  2.500000e-02  7.995476e-02
     vertex -1.213525e-01  2.500000e-02  8.816779e-02
   endloop
 endfacet
 facet normal  0.000000e+00  1.000000e+00  0.000000e+00
   outer loop
     vertex  1.051855e-01  2.500000e-02 -1.069393e-01
     vertex -1.152602e-01  2.500000e-02 -9.599528e-02
     vertex -1.269143e-01  2.500000e-02 -7.995476e-02
   endloop
 endfacet
 facet normal  0.000000e+00  1.000000e+00  0.000000e+00
   outer loop
     vertex  1.051855e-01  2.500000e-02 -1.069393e-01
     vertex -1.319211e-01  2.500000e-02  7.139211e-02
     vertex -1.269143e-01  2.500000e-02  7.995476e-02
   endloop
 endfacet
 facet normal  0.000000e+00  1.000000e+00  0.000000e+00
   outer loop
     vertex  1.051855e-01  2.500000e-02 -1.069393e-01
     vertex -1.363510e-01  2.500000e-02  6.251728e-02
     vertex -1.319211e-01  2.500000e-02  7.139211e-02
   endloop
 endfacet
 facet normal  0.000000e+00  1.000000e+00  0.000000e+00
   outer loop
     vertex  1.051855e-01  2.500000e-02 -1.069393e-01
     vertex -1.401847e-01  2.500000e-02  5.336908e-02
     vertex -1.363510e-01  2.500000e-02  6.251728e-02
   endloop
 endfacet
 facet normal  0.000000e+00  1.000000e+00  0.000000e+00
   outer loop
     vertex  1.051855e-01  2.500000e-02 -1.069393e-01
     vertex -1.434054e-01  2.500000e-02  4.398751e-02
     vertex -1.401847e-01  2.500000e-02  5.336908e-02
   endloop
 endfacet
 facet normal  0.000000e+00  1.000000e+00  0.000000e+00
   outer loop
     vertex  1.051855e-01  2.500000e-02 -1.069393e-01
     vertex -1.459990e-01  2.500000e-02  3.441359e-02
     vertex -1.434054e-01  2.500000e-02  4.398751e-02
   endloop
 endfacet
 facet normal  0.000000e+00  1.000000e+00  0.000000e+00
   outer loop
     vertex  1.051855e-01  2.500000e-02 -1.069393e-01
     vertex -1.479542e-01  2.500000e-02  2.468919e-02
     vertex -1.459990e-01  2.500000e-02  3.441359e-02
   endloop
 endfacet
 facet normal  0.000000e+00  1.000000e+00  0.000000e+00
   outer loop
     vertex  1.051855e-01  2.500000e-02 -1.069393e-01
     vertex -1.492624e-01  2.500000e-02  1.485683e-02
     vertex -1.479542e-01  2.500000e-02  2.468919e-02
   endloop
 endfacet
 facet normal  0.000000e+00  1.000000e+00  0.000000e+00
   outer loop
     vertex  1.051855e-01  2.500000e-02 -1.069393e-01
     vertex -1.499180e-01  2.500000e-02  4.959505e-03
     vertex -1.492624e-01  2.500000e-02  1.485683e-02
   endloop
 endfacet
 facet normal  0.000000e+00  1.000000e+00  0.000000e+00
   outer loop
     vertex  1.051855e-01  2.500000e-02 -1.069393e-01
     vertex -1.499180e-01  2.500000e-02 -4.959505e-03
     vertex -1.499180e-01  2.500000e-02  4.959505e-03
   endloop
 endfacet
 facet normal  0.000000e+00  1.000000e+00  0.000000e+00
   outer loop
     vertex  1.051855e-01  2.500000e-02 -1.069393e-01
     vertex -1.492624e-01  2.500000e-02 -1.485683e-02
     vertex -1.499180e-01  2.500000e-02 -4.959505e-03
   endloop
 endfacet
 facet normal  0.000000e+00  1.000000e+00  0.000000e+00
   outer loop
     vertex  1.051855e-01  2.500000e-02 -1.069393e-01
     vertex -1.479542e-01  2.500000e-02 -2.468919e-02
     vertex -1.492624e-01  2.500000e-02 -1.485683e-02
   endloop
 endfacet
 facet normal  0.000000e+00  1.000000e+00  0.000000e+00
   outer loop
     vertex  1.051855e-01  2.500000e-02 -1.069393e-01
     vertex -1.459990e-01  2.500000e-02 -3.441359e-02
     vertex -1.479542e-01  2.500000e-02 -2.468919e-02
   endloop
 endfacet
 facet normal  0.000000e+00  1.000000e+00  0.000000e+00
   outer loop
     vertex  1.051855e-01  2.500000e-02 -1.069393e-01
     vertex -1.434054e-01  2.500000e-02 -4.398751e-02
     vertex -1.459990e-01  2.500000e-02 -3.441359e-02
   endloop
 endfacet
 facet normal  0.000000e+00  1.000000e+00  0.000000e+00
   outer loop
     vertex  1.051855e-01  2.500000e-02 -1.069393e-01
     vertex -1.401847e-01  2.500000e-02 -5.336908e-02
     vertex -1.434054e-01  2.500000e-02 -4.398751e-02
   endloop
 endfacet
 facet normal  0.000000e+00  1.000000e+00  0.000000e+00
   outer loop
     vertex  1.051855e-01  2.500000e-02 -1.069393e-01
     vertex -1.363510e-01  2.500000e-02 -6.251728e-02
     vertex -1.401847e-01  2.500000e-02 -5.336908e-02
   endloop
 endfacet
 facet normal  0.000000e+00  1.000000e+00  0.000000e+00
   outer loop
     vertex  1.051855e-01  2.500000e-02 -1.069393e-01
     vertex  3.682282e-02  2.500000e-02 -1.454100e-01
     vertex  7.437563e-03  2.500000e-02 -1.498155e-01
   endloop
 endfacet
 facet normal  0.000000e+00  1.000000e+00  0.000000e+00
   outer loop
     vertex  1.051855e-01  2.500000e-02 -1.069393e-01
     vertex -1.319211e-01  2.500000e-02 -7.139211e-02
     vertex -1.363510e-01  2.500000e-02 -6.251728e-02
   endloop
 endfacet
 facet normal  0.000000e+00  1.000000e+00  0.000000e+00
   outer loop
     vertex  1.051855e-01  2.500000e-02 -1.069393e-01
     vertex -1.269143e-01  2.500000e-02 -7.995476e-02
     vertex -1.319211e-01  2.500000e-02 -7.139211e-02
   endloop
 endfacet
 facet normal  0.000000e+00  1.000000e+00  0.000000e+00
   outer loop
     vertex  1.051855e-01  2.500000e-02 -1.069393e-01
     vertex -1.086638e-01  2.500000e-02 -1.034030e-01
     vertex -1.152602e-01  2.500000e-02 -9.599528e-02
   endloop
 endfacet
 facet normal  0.000000e+00  1.000000e+00  0.000000e+00
   outer loop
     vertex  1.051855e-01  2.500000e-02 -1.069393e-01
     vertex -1.015922e-01  2.500000e-02 -1.103586e-01
     vertex -1.086638e-01  2.500000e-02 -1.034030e-01
   endloop
 endfacet
 facet normal  0.000000e+00  1.000000e+00  0.000000e+00
   outer loop
     vertex  1.051855e-01  2.500000e-02 -1.069393e-01
     vertex -6.920117e-02  2.500000e-02 -1.330834e-01
     vertex -7.784544e-02  2.500000e-02 -1.282189e-01
   endloop
 endfacet
 facet normal  0.000000e+00  1.000000e+00  0.000000e+00
   outer loop
     vertex  1.051855e-01  2.500000e-02 -1.069393e-01
     vertex -6.025431e-02  2.500000e-02 -1.373660e-01
     vertex -6.920117e-02  2.500000e-02 -1.330834e-01
   endloop
 endfacet
 facet normal  0.000000e+00  1.000000e+00  0.000000e+00
   outer loop
     vertex  1.051855e-01  2.500000e-02 -1.069393e-01
     vertex -5.104398e-02  2.500000e-02 -1.410479e-01
     vertex -6.025431e-02  2.500000e-02 -1.373660e-01
   endloop
 endfacet
 facet normal  0.000000e+00  1.000000e+00  0.000000e+00
   outer loop
     vertex  1.051855e-01  2.500000e-02 -1.069393e-01
     vertex -4.161044e-02  2.500000e-02 -1.441131e-01
     vertex -5.104398e-02  2.500000e-02 -1.410479e-01
   endloop
 endfacet
 facet normal  0.000000e+00  1.000000e+00  0.000000e+00
   outer loop
     vertex  1.051855e-01  2.500000e-02 -1.069393e-01
     vertex -3.199494e-02  2.500000e-02 -1.465480e-01
     vertex -4.161044e-02  2.500000e-02 -1.441131e-01
   endloop
 endfacet
 facet normal  0.000000e+00  1.000000e+00  0.000000e+00
   outer loop
     vertex  1.051855e-01  2.500000e-02 -1.069393e-01
     vertex -2.223955e-02  2.500000e-02 -1.483422e-01
     vertex -3.199494e-02  2.500000e-02 -1.465480e-01
   endloop
 endfacet
 facet normal  0.000000e+00  1.000000e+00  0.000000e+00
   outer loop
     vertex  1.051855e-01  2.500000e-02 -1.069393e-01
     vertex -1.238690e-02  2.500000e-02 -1.494877e-01
     vertex -2.223955e-02  2.500000e-02 -1.483422e-01
   endloop
 endfacet
 facet normal  0.000000e+00  1.000000e+00  0.000000e+00
   outer loop
     vertex  1.051855e-01  2.500000e-02 -1.069393e-01
     vertex -2.480092e-03  2.500000e-02 -1.499795e-01
     vertex -1.238690e-02  2.500000e-02 -1.494877e-01
   endloop
 endfacet
 facet normal  0.000000e+00  1.000000e+00  0.000000e+00
   outer loop
     vertex  1.051855e-01  2.500000e-02 -1.069393e-01
     vertex  7.437563e-03  2.500000e-02 -1.498155e-01
     vertex -2.480092e-03  2.500000e-02 -1.499795e-01
   endloop
 endfacet
 facet normal  0.000000e+00  1.000000e+00  0.000000e+00
   outer loop
     vertex  1.051855e-01  2.500000e-02 -1.069393e-01
     vertex  8.204222e-02  2.500000e-02 -1.255750e-01
     vertex  4.635255e-02  2.500000e-02 -1.426585e-01
   endloop
 endfacet
 facet normal  0.000000e+00  1.000000e+00  0.000000e+00
   outer loop
     vertex  1.051855e-01  2.500000e-02 -1.069393e-01
     vertex  4.635255e-02  2.500000e-02 -1.426585e-01
     vertex  3.682282e-02  2.500000e-02 -1.454100e-01
   endloop
 endfacet
 facet normal  0.000000e+00  1.000000e+00  0.000000e+00
   outer loop
     vertex  1.051855e-01  2.500000e-02 -1.069393e-01
     vertex  9.016217e-02  2.500000e-02 -1.198782e-01
     vertex  8.204222e-02  2.500000e-02 -1.255750e-01
   endloop
 endfacet
 facet normal  0.000000e+00  1.000000e+00  0.000000e+00
   outer loop
     vertex  1.051855e-01  2.500000e-02 -1.069393e-01
     vertex  9.788786e-02  2.500000e-02 -1.136572e-01
     vertex  9.016217e-02  2.500000e-02 -1.198782e-01
   endloop
 endfacet
 facet normal  0.000000e+00  1.000000e+00  0.000000e+00
   outer loop
     vertex  1.051855e-01  2.500000e-02 -1.069393e-01
     vertex  1.183711e-01  2.500000e-02 -9.213191e-02
     vertex  1.120232e-01  2.500000e-02 -9.975369e-02
   endloop
 endfacet
 facet normal  0.000000e+00  1.000000e+00  0.000000e+00
   outer loop
     vertex  1.051855e-01  2.500000e-02 -1.069393e-01
     vertex  1.242013e-01  2.500000e-02 -8.410726e-02
     vertex  1.183711e-01  2.500000e-02 -9.213191e-02
   endloop
 endfacet
 facet normal  0.000000e+00  1.000000e+00  0.000000e+00
   outer loop
     vertex  1.051855e-01  2.500000e-02 -1.069393e-01
     vertex  1.294885e-01  2.500000e-02 -7.571483e-02
     vertex  1.242013e-01  2.500000e-02 -8.410726e-02
   endloop
 endfacet
 facet normal  0.000000e+00  1.000000e+00  0.000000e+00
   outer loop
     vertex  1.051855e-01  2.500000e-02 -1.069393e-01
     vertex  1.342094e-01  2.500000e-02 -6.699132e-02
     vertex  1.294885e-01  2.500000e-02 -7.571483e-02
   endloop
 endfacet
 facet normal  0.000000e+00  1.000000e+00  0.000000e+00
   outer loop
     vertex  1.051855e-01  2.500000e-02 -1.069393e-01
     vertex  1.383435e-01  2.500000e-02 -5.797488e-02
     vertex  1.342094e-01  2.500000e-02 -6.699132e-02
   endloop
 endfacet
 facet normal  0.000000e+00  1.000000e+00  0.000000e+00
   outer loop
     vertex  1.051855e-01  2.500000e-02 -1.069393e-01
     vertex  1.418726e-01  2.500000e-02 -4.870492e-02
     vertex  1.383435e-01  2.500000e-02 -5.797488e-02
   endloop
 endfacet
 facet normal  0.000000e+00  1.000000e+00  0.000000e+00
   outer loop
     vertex  1.051855e-01  2.500000e-02 -1.069393e-01
     vertex  1.447813e-01  2.500000e-02 -3.922199e-02
     vertex  1.418726e-01  2.500000e-02 -4.870492e-02
   endloop
 endfacet
 facet normal  0.000000e+00  1.000000e+00  0.000000e+00
   outer loop
     vertex  1.051855e-01  2.500000e-02 -1.069393e-01
     vertex  1.470570e-01  2.500000e-02 -2.956755e-02
     vertex  1.447813e-01  2.500000e-02 -3.922199e-02
   endloop
 endfacet
 facet normal  0.000000e+00  1.000000e+00  0.000000e+00
   outer loop
     vertex  1.051855e-01  2.500000e-02 -1.069393e-01
     vertex  1.486896e-01  2.500000e-02 -1.978383e-02
     vertex  1.470570e-01  2.500000e-02 -2.956755e-02
   endloop
 endfacet
 facet normal  0.000000e+00  1.000000e+00  0.000000e+00
   outer loop
     vertex  1.051855e-01  2.500000e-02 -1.069393e-01
     vertex  1.496720e-01  2.500000e-02 -9.913588e-03
     vertex  1.486896e-01  2.500000e-02 -1.978383e-02
   endloop
 endfacet
 facet normal  0.000000e+00  1.000000e+00  0.000000e+00
   outer loop
     vertex  1.051855e-01  2.500000e-02 -1.069393e-01
     vertex  1.500000e-01  2.500000e-02  0.000000e+00
     vertex  1.496720e-01  2.500000e-02 -9.913588e-03
   endloop
 endfacet
 facet normal  0.000000e+00  1.000000e+00  0.000000e+00
   outer loop
     vertex -1.152602e-01  2.500000e-02 -9.599528e-02
     vertex -1.213525e-01  2.500000e-02 -8.816779e-02
     vertex -1.269143e-01  2.500000e-02 -7.995476e-02
   endloop
 endfacet
 facet normal  0.000000e+00  1.000000e+00  0.000000e+00
   outer loop
     vertex -7.784544e-02  2.500000e-02 -1.282189e-01
     vertex -9.407645e-02  2.500000e-02 -1.168316e-01
     vertex -1.015922e-01  2.500000e-02 -1.103586e-01
   endloop
 endfacet
 facet normal  0.000000e+00  1.000000e+00  0.000000e+00
   outer loop
     vertex -7.784544e-02  2.500000e-02 -1.282189e-01
     vertex -8.614930e-02  2.500000e-02 -1.227937e-01
     vertex -9.407645e-02  2.500000e-02 -1.168316e-01
   endloop
 endfacet
 facet normal  0.000000e+00  1.000000e+00  0.000000e+00
   outer loop
     vertex  1.294885e-01  2.500000e-02  7.571483e-02
     vertex  1.183711e-01  2.500000e-02  9.213191e-02
     vertex  1.242013e-01  2.500000e-02  8.410726e-02
   endloop
 endfacet
 facet normal  0.000000e+00  1.000000e+00  0.000000e+00
   outer loop
     vertex  1.383435e-01  2.500000e-02  5.797488e-02
     vertex  1.294885e-01  2.500000e-02  7.571483e-02
     vertex  1.342094e-01  2.500000e-02  6.699132e-02
   endloop
 endfacet
 facet normal  0.000000e+00  1.000000e+00  0.000000e+00
   outer loop
     vertex  3.682282e-02  2.500000e-02 -1.454100e-01
     vertex  1.732270e-02  2.500000e-02 -1.489964e-01
     vertex  7.437563e-03  2.500000e-02 -1.498155e-01
   endloop
 endfacet
 facet normal  0.000000e+00  1.000000e+00  0.000000e+00
   outer loop
     vertex  3.682282e-02  2.500000e-02 -1.454100e-01
     vertex  2.713208e-02  2.500000e-02 -1.475258e-01
     vertex  1.732270e-02  2.500000e-02 -1.489964e-01
   endloop
 endfacet
 facet normal  0.000000e+00  1.000000e+00  0.000000e+00
   outer loop
     vertex  7.356353e-02  2.500000e-02 -1.307226e-01
     vertex  6.476315e-02  2.500000e-02 -1.352987e-01
     vertex  5.567959e-02  2.500000e-02 -1.392831e-01
   endloop
 endfacet
 facet normal  0.000000e+00  1.000000e+00  0.000000e+00
   outer loop
     vertex  8.204222e-02  2.500000e-02 -1.255750e-01
     vertex  7.356353e-02  2.500000e-02 -1.307226e-01
     vertex  5.567959e-02  2.500000e-02 -1.392831e-01
   endloop
 endfacet
 facet normal  0.000000e+00  1.000000e+00  0.000000e+00
   outer loop
     vertex  8.204222e-02  2.500000e-02 -1.255750e-01
     vertex  5.567959e-02  2.500000e-02 -1.392831e-01
     vertex  4.635255e-02  2.500000e-02 -1.426585e-01
   endloop
 endfacet
 facet normal  0.000000e+00  1.000000e+00  0.000000e+00
   outer loop
     vertex  1.051855e-01  2.500000e-02 -1.069393e-01
     vertex  1.496720e-01  2.500000e-02  9.913588e-03
     vertex  1.500000e-01  2.500000e-02  0.000000e+00
   endloop
 endfacet
 facet normal  0.000000e+00  1.000000e+00  0.000000e+00
   outer loop
     vertex  1.051855e-01  2.500000e-02 -1.069393e-01
     vertex  1.486896e-01  2.500000e-02  1.978383e-02
     vertex  1.496720e-01  2.500000e-02  9.913588e-03
   endloop
 endfacet
 facet normal  0.000000e+00  1.000000e+00  0.000000e+00
   outer loop
     vertex  1.051855e-01  2.500000e-02 -1.069393e-01
     vertex -7.784544e-02  2.500000e-02 -1.282189e-01
     vertex -1.015922e-01  2.500000e-02 -1.103586e-01
   endloop
 endfacet
 facet normal  0.000000e+00  1.000000e+00  0.000000e+00
   outer loop
     vertex  1.051855e-01  2.500000e-02 -1.069393e-01
     vertex  1.470570e-01  2.500000e-02  2.956755e-02
     vertex  1.486896e-01  2.500000e-02  1.978383e-02
   endloop
 endfacet
 facet normal  0.000000e+00  1.000000e+00  0.000000e+00
   outer loop
     vertex  1.051855e-01  2.500000e-02 -1.069393e-01
     vertex  1.447813e-01  2.500000e-02  3.922199e-02
     vertex  1.470570e-01  2.500000e-02  2.956755e-02
   endloop
 endfacet
 facet normal  0.000000e+00  1.000000e+00  0.000000e+00
   outer loop
     vertex  1.051855e-01  2.500000e-02 -1.069393e-01
     vertex  1.418726e-01  2.500000e-02  4.870492e-02
     vertex  1.447813e-01  2.500000e-02  3.922199e-02
   endloop
 endfacet
 facet normal  0.000000e+00  1.000000e+00  0.000000e+00
   outer loop
     vertex  1.051855e-01  2.500000e-02 -1.069393e-01
     vertex  1.183711e-01  2.500000e-02  9.213191e-02
     vertex  1.294885e-01  2.500000e-02  7.571483e-02
   endloop
 endfacet
 facet normal  0.000000e+00  1.000000e+00  0.000000e+00
   outer loop
     vertex  1.051855e-01  2.500000e-02 -1.069393e-01
     vertex  1.383435e-01  2.500000e-02  5.797488e-02
     vertex  1.418726e-01  2.500000e-02  4.870492e-02
   endloop
 endfacet
 facet normal  0.000000e+00  1.000000e+00  0.000000e+00
   outer loop
     vertex  1.051855e-01  2.500000e-02 -1.069393e-01
     vertex  1.120232e-01  2.500000e-02  9.975369e-02
     vertex  1.183711e-01  2.500000e-02  9.213191e-02
   endloop
 endfacet
 facet normal  0.000000e+00  1.000000e+00 -0.000000e+00
   outer loop
     vertex  1.051855e-01  2.500000e-02 -1.069393e-01
     vertex  1.051855e-01  2.500000e-02  1.069393e-01
     vertex  1.120232e-01  2.500000e-02  9.975369e-02
   endloop
 endfacet
 facet normal  0.000000e+00  1.000000e+00  0.000000e+00
   outer loop
     vertex  1.051855e-01  2.500000e-02 -1.069393e-01
     vertex  1.294885e-01  2.500000e-02  7.571483e-02
     vertex  1.383435e-01  2.500000e-02  5.797488e-02
   endloop
 endfacet
 facet normal  0.000000e+00  1.000000e+00  0.000000e+00
   outer loop
     vertex  1.051855e-01  2.500000e-02 -1.069393e-01
     vertex  9.788786e-02  2.500000e-02  1.136572e-01
     vertex  1.051855e-01  2.500000e-02  1.069393e-01
   endloop
 endfacet
 facet normal  0.000000e+00  1.000000e+00  0.000000e+00
   outer loop
     vertex  1.051855e-01  2.500000e-02 -1.069393e-01
     vertex  9.016217e-02  2.500000e-02  1.198782e-01
     vertex  9.788786e-02  2.500000e-02  1.136572e-01
   endloop
 endfacet
 facet normal  0.000000e+00  1.000000e+00  0.000000e+00
   outer loop
     vertex  1.051855e-01  2.500000e-02 -1.069393e-01
     vertex  8.204222e-02  2.500000e-02  1.255750e-01
     vertex  9.016217e-02  2.500000e-02  1.198782e-01
   endloop
 endfacet
 facet normal  0.000000e+00  1.000000e+00  0.000000e+00
   outer loop
     vertex  1.051855e-01  2.500000e-02 -1.069393e-01
     vertex  7.356353e-02  2.500000e-02  1.307226e-01
     vertex  8.204222e-02  2.500000e-02  1.255750e-01
   endloop
 endfacet
 facet normal  0.000000e+00  1.000000e+00  0.000000e+00
   outer loop
     vertex  1.051855e-01  2.500000e-02 -1.069393e-01
     vertex  6.476315e-02  2.500000e-02  1.352987e-01
     vertex  7.356353e-02  2.500000e-02  1.307226e-01
   endloop
 endfacet
 facet normal  0.000000e+00  1.000000e+00  0.000000e+00
   outer loop
     vertex  1.051855e-01  2.500000e-02 -1.069393e-01
     vertex  5.567959e-02  2.500000e-02  1.392831e-01
     vertex  6.476315e-02  2.500000e-02  1.352987e-01
   endloop
 endfacet
 facet normal  0.000000e+00  1.000000e+00  0.000000e+00
   outer loop
     vertex  1.051855e-01  2.500000e-02 -1.069393e-01
     vertex  4.635255e-02  2.500000e-02  1.426585e-01
     vertex  5.567959e-02  2.500000e-02  1.392831e-01
   endloop
 endfacet
 facet normal  0.000000e+00  1.000000e+00  0.000000e+00
   outer loop
     vertex  1.051855e-01  2.500000e-02 -1.069393e-01
     vertex  3.682282e-02  2.500000e-02  1.454100e-01
     vertex  4.635255e-02  2.500000e-02  1.426585e-01
   endloop
 endfacet
 facet normal  0.000000e+00  1.000000e+00  0.000000e+00
   outer loop
     vertex  1.051855e-01  2.500000e-02 -1.069393e-01
     vertex  2.713208e-02  2.500000e-02  1.475258e-01
     vertex  3.682282e-02  2.500000e-02  1.454100e-01
   endloop
 endfacet
 facet normal  0.000000e+00  1.000000e+00  0.000000e+00
   outer loop
     vertex  1.051855e-01  2.500000e-02 -1.069393e-01
     vertex  1.732270e-02  2.500000e-02  1.489964e-01
     vertex  2.713208e-02  2.500000e-02  1.475258e-01
   endloop
 endfacet
 facet normal  0.000000e+00  1.000000e+00  0.000000e+00
   outer loop
     vertex  1.051855e-01  2.500000e-02 -1.069393e-01
     vertex  7.437563e-03  2.500000e-02  1.498155e-01
     vertex  1.732270e-02  2.500000e-02  1.489964e-01
   endloop
 endfacet
 facet normal  0.000000e+00  1.000000e+00  0.000000e+00
   outer loop
     vertex  1.051855e-01  2.500000e-02 -1.069393e-01
     vertex -2.480092e-03  2.500000e-02  1.499795e-01
     vertex  7.437563e-03  2.500000e-02  1.498155e-01
   endloop
 endfacet
 facet normal  0.000000e+00  1.000000e+00  0.000000e+00
   outer loop
     vertex  1.051855e-01  2.500000e-02 -1.069393e-01
     vertex -1.238690e-02  2.500000e-02  1.494877e-01
     vertex -2.480092e-03  2.500000e-02  1.499795e-01
   endloop
 endfacet
 facet normal  0.000000e+00  1.000000e+00  0.000000e+00
   outer loop
     vertex  1.051855e-01  2.500000e-02 -1.069393e-01
     vertex -2.223955e-02  2.500000e-02  1.483422e-01
     vertex -1.238690e-02  2.500000e-02  1.494877e-01
   endloop
 endfacet
 facet normal  0.000000e+00  1.000000e+00  0.000000e+00
   outer loop
     vertex  1.051855e-01  2.500000e-02 -1.069393e-01
     vertex -3.199494e-02  2.500000e-02  1.465480e-01
     vertex -2.223955e-02  2.500000e-02  1.483422e-01
   endloop
 endfacet
 facet normal  0.000000e+00  1.000000e+00  0.000000e+00
   outer loop
     vertex  1.051855e-01  2.500000e-02 -1.069393e-01
     vertex -4.161044e-02  2.500000e-02  1.441131e-01
     vertex -3.199494e-02  2.500000e-02  1.465480e-01
   endloop
 endfacet
 facet normal  0.000000e+00  1.000000e+00  0.000000e+00
   outer loop
     vertex  1.051855e-01  2.500000e-02 -1.069393e-01
     vertex -5.104398e-02  2.500000e-02  1.410479e-01
     vertex -4.161044e-02  2.500000e-02  1.441131e-01
   endloop
 endfacet
 facet normal  0.000000e+00  1.000000e+00  0.000000e+00
   outer loop
     vertex  1.051855e-01  2.500000e-02 -1.069393e-01
     vertex -6.025431e-02  2.500000e-02  1.373660e-01
     vertex -5.104398e-02  2.500000e-02  1.410479e-01
   endloop
 endfacet
 facet normal  0.000000e+00  1.000000e+00  0.000000e+00
   outer loop
     vertex  1.051855e-01  2.500000e-02 -1.069393e-01
     vertex -6.920117e-02  2.500000e-02  1.330834e-01
     vertex -6.025431e-02  2.500000e-02  1.373660e-01
   endloop
 endfacet
 facet normal  0.000000e+00  1.000000e+00  0.000000e+00
   outer loop
     vertex  1.051855e-01  2.500000e-02 -1.069393e-01
     vertex -7.784544e-02  2.500000e-02  1.282189e-01
     vertex -6.920117e-02  2.500000e-02  1.330834e-01
   endloop
 endfacet
 facet normal  0.000000e+00  1.000000e+00  0.000000e+00
   outer loop
     vertex  1.051855e-01  2.500000e-02 -1.069393e-01
     vertex -8.614930e-02  2.500000e-02  1.227937e-01
     vertex -7.784544e-02  2.500000e-02  1.282189e-01
   endloop
 endfacet
 facet normal  0.000000e+00  1.000000e+00  0.000000e+00
   outer loop
     vertex  1.051855e-01  2.500000e-02 -1.069393e-01
     vertex -9.407645e-02  2.500000e-02  1.168316e-01
     vertex -8.614930e-02  2.500000e-02  1.227937e-01
   endloop
 endfacet
 facet normal  0.000000e+00  1.000000e+00  0.000000e+00
   outer loop
     vertex  1.051855e-01  2.500000e-02 -1.069393e-01
     vertex -1.015922e-01  2.500000e-02  1.103586e-01
     vertex -9.407645e-02  2.500000e-02  1.168316e-01
   endloop
 endfacet
 facet normal  0.000000e+00  1.000000e+00  0.000000e+00
   outer loop
     vertex  1.051855e-01  2.500000e-02 -1.069393e-01
     vertex -1.086638e-01  2.500000e-02  1.034030e-01
     vertex -1.015922e-01  2.500000e-02  1.103586e-01
   endloop
 endfacet
 facet normal  0.000000e+00 -1.000000e+00  0.000000e+00
   outer loop
     vertex  1.051855e-01 -2.500000e-02 -1.069393e-01
     vertex -1.086638e-01 -2.500000e-02  1.034030e-01
     vertex -1.152602e-01 -2.500000e-02  9.599528e-02
   endloop
 endfacet
 facet normal  0.000000e+00 -1.000000e+00  0.000000e+00
   outer loop
     vertex  1.051855e-01 -2.500000e-02 -1.069393e-01
     vertex -1.152602e-01 -2.500000e-02  9.599528e-02
     vertex -1.213525e-01 -2.500000e-02  8.816779e-02
   endloop
 endfacet
 facet normal  0.000000e+00 -1.000000e+00  0.000000e+00
   outer loop
     vertex  1.051855e-01 -2.500000e-02 -1.069393e-01
     vertex -1.213525e-01 -2.500000e-02  8.816779e-02
     vertex -1.269143e-01 -2.500000e-02  7.995476e-02
   endloop
 endfacet
 facet normal  0.000000e+00 -1.000000e+00  0.000000e+00
   outer loop
     vertex  1.051855e-01 -2.500000e-02 -1.069393e-01
     vertex -1.269143e-01 -2.500000e-02 -7.995476e-02
     vertex -1.152602e-01 -2.500000e-02 -9.599528e-02
   endloop
 endfacet
 facet normal  0.000000e+00 -1.000000e+00  0.000000e+00
   outer loop
     vertex  1.051855e-01 -2.500000e-02 -1.069393e-01
     vertex -1.269143e-01 -2.500000e-02  7.995476e-02
     vertex -1.319211e-01 -2.500000e-02  7.139211e-02
   endloop
 endfacet
 facet normal  0.000000e+00 -1.000000e+00  0.000000e+00
   outer loop
     vertex  1.051855e-01 -2.500000e-02 -1.069393e-01
     vertex -1.319211e-01 -2.500000e-02  7.139211e-02
     vertex -1.363510e-01 -2.500000e-02  6.251728e-02
   endloop
 endfacet
 facet normal  0.000000e+00 -1.000000e+00  0.000000e+00
   outer loop
     vertex  1.051855e-01 -2.500000e-02 -1.069393e-01
     vertex -1.363510e-01 -2.500000e-02  6.251728e-02
     vertex -1.401847e-01 -2.500000e-02  5.336908e-02
   endloop
 endfacet
 facet normal  0.000000e+00 -1.000000e+00  0.000000e+00
   outer loop
     vertex  1.051855e-01 -2.500000e-02 -1.069393e-01
     vertex -1.401847e-01 -2.500000e-02  5.336908e-02
     vertex -1.434054e-01 -2.500000e-02  4.398751e-02
   endloop
 endfacet
 facet normal  0.000000e+00 -1.000000e+00  0.000000e+00
   outer loop
     vertex  1.051855e-01 -2.500000e-02 -1.069393e-01
     vertex -1.434054e-01 -2.500000e-02  4.398751e-02
     vertex -1.459990e-01 -2.500000e-02  3.441359e-02
   endloop
 endfacet
 facet normal  0.000000e+00 -1.000000e+00  0.000000e+00
   outer loop
     vertex  1.051855e-01 -2.500000e-02 -1.069393e-01
     vertex -1.459990e-01 -2.500000e-02  3.441359e-02
     vertex -1.479542e-01 -2.500000e-02  2.468919e-02
   endloop
 endfacet
 facet normal  0.000000e+00 -1.000000e+00  0.000000e+00
   outer loop
     vertex  1.051855e-01 -2.500000e-02 -1.069393e-01
     vertex -1.479542e-01 -2.500000e-02  2.468919e-02
     vertex -1.492624e-01 -2.500000e-02  1.485683e-02
   endloop
 endfacet
 facet normal  0.000000e+00 -1.000000e+00  0.000000e+00
   outer loop
     vertex  1.051855e-01 -2.500000e-02 -1.069393e-01
     vertex -1.492624e-01 -2.500000e-02  1.485683e-02
     vertex -1.499180e-01 -2.500000e-02  4.959505e-03
   endloop
 endfacet
 facet normal  0.000000e+00 -1.000000e+00  0.000000e+00
   outer loop
     vertex  1.051855e-01 -2.500000e-02 -1.069393e-01
     vertex -1.499180e-01 -2.500000e-02  4.959505e-03
     vertex -1.499180e-01 -2.500000e-02 -4.959505e-03
   endloop
 endfacet
 facet normal  0.000000e+00 -1.000000e+00  0.000000e+00
   outer loop
     vertex  1.051855e-01 -2.500000e-02 -1.069393e-01
     vertex -1.499180e-01 -2.500000e-02 -4.959505e-03
     vertex -1.492624e-01 -2.500000e-02 -1.485683e-02
   endloop
 endfacet
 facet normal  0.000000e+00 -1.000000e+00  0.000000e+00
   outer loop
     vertex  1.051855e-01 -2.500000e-02 -1.069393e-01
     vertex -1.492624e-01 -2.500000e-02 -1.485683e-02
     vertex -1.479542e-01 -2.500000e-02 -2.468919e-02
   endloop
 endfacet
 facet normal  0.000000e+00 -1.000000e+00  0.000000e+00
   outer loop
     vertex  1.051855e-01 -2.500000e-02 -1.069393e-01
     vertex -1.479542e-01 -2.500000e-02 -2.468919e-02
     vertex -1.459990e-01 -2.500000e-02 -3.441359e-02
   endloop
 endfacet
 facet normal  0.000000e+00 -1.000000e+00  0.000000e+00
   outer loop
     vertex  1.051855e-01 -2.500000e-02 -1.069393e-01
     vertex -1.459990e-01 -2.500000e-02 -3.441359e-02
     vertex -1.434054e-01 -2.500000e-02 -4.398751e-02
   endloop
 endfacet
 facet normal  0.000000e+00 -1.000000e+00  0.000000e+00
   outer loop
     vertex  1.051855e-01 -2.500000e-02 -1.069393e-01
     vertex -1.434054e-01 -2.500000e-02 -4.398751e-02
     vertex -1.401847e-01 -2.500000e-02 -5.336908e-02
   endloop
 endfacet
 facet normal  0.000000e+00 -1.000000e+00  0.000000e+00
   outer loop
     vertex  1.051855e-01 -2.500000e-02 -1.069393e-01
     vertex -1.401847e-01 -2.500000e-02 -5.336908e-02
     vertex -1.363510e-01 -2.500000e-02 -6.251728e-02
   endloop
 endfacet
 facet normal  0.000000e+00 -1.000000e+00  0.000000e+00
   outer loop
     vertex  1.051855e-01 -2.500000e-02 -1.069393e-01
     vertex  7.437563e-03 -2.500000e-02 -1.498155e-01
     vertex  3.682282e-02 -2.500000e-02 -1.454100e-01
   endloop
 endfacet
 facet normal  0.000000e+00 -1.000000e+00  0.000000e+00
   outer loop
     vertex  1.051855e-01 -2.500000e-02 -1.069393e-01
     vertex -1.363510e-01 -2.500000e-02 -6.251728e-02
     vertex -1.319211e-01 -2.500000e-02 -7.139211e-02
   endloop
 endfacet
 facet normal  0.000000e+00 -1.000000e+00  0.000000e+00
   outer loop
     vertex  1.051855e-01 -2.500000e-02 -1.069393e-01
     vertex -1.319211e-01 -2.500000e-02 -7.139211e-02
     vertex -1.269143e-01 -2.500000e-02 -7.995476e-02
   endloop
 endfacet
 facet normal  0.000000e+00 -1.000000e+00  0.000000e+00
   outer loop
     vertex  1.051855e-01 -2.500000e-02 -1.069393e-01
     vertex -1.152602e-01 -2.500000e-02 -9.599528e-02
     vertex -1.086638e-01 -2.500000e-02 -1.034030e-01
   endloop
 endfacet
 facet normal -0.000000e+00 -1.000000e+00  0.000000e+00
   outer loop
     vertex  1.051855e-01 -2.500000e-02 -1.069393e-01
     vertex -1.086638e-01 -2.500000e-02 -1.034030e-01
     vertex -1.015922e-01 -2.500000e-02 -1.103586e-01
   endloop
 endfacet
 facet normal  0.000000e+00 -1.000000e+00  0.000000e+00
   outer loop
     vertex  1.051855e-01 -2.500000e-02 -1.069393e-01
     vertex -7.784544e-02 -2.500000e-02 -1.282189e-01
     vertex -6.920117e-02 -2.500000e-02 -1.330834e-01
   endloop
 endfacet
 facet normal  0.000000e+00 -1.000000e+00  0.000000e+00
   outer loop
     vertex  1.051855e-01 -2.500000e-02 -1.069393e-01
     vertex -6.920117e-02 -2.500000e-02 -1.330834e-01
     vertex -6.025431e-02 -2.500000e-02 -1.373660e-01
   endloop
 endfacet
 facet normal  0.000000e+00 -1.000000e+00  0.000000e+00
   outer loop
     vertex  1.051855e-01 -2.500000e-02 -1.069393e-01
     vertex -6.025431e-02 -2.500000e-02 -1.373660e-01
     vertex -5.104398e-02 -2.500000e-02 -1.410479e-01
   endloop
 endfacet
 facet normal  0.000000e+00 -1.000000e+00  0.000000e+00
   outer loop
     vertex  1.051855e-01 -2.500000e-02 -1.069393e-01
     vertex -5.104398e-02 -2.500000e-02 -1.410479e-01
     vertex -4.161044e-02 -2.500000e-02 -1.441131e-01
   endloop
 endfacet
 facet normal  0.000000e+00 -1.000000e+00  0.000000e+00
   outer loop
     vertex  1.051855e-01 -2.500000e-02 -1.069393e-01
     vertex -4.161044e-02 -2.500000e-02 -1.441131e-01
     vertex -3.199494e-02 -2.500000e-02 -1.465480e-01
   endloop
 endfacet
 facet normal  0.000000e+00 -1.000000e+00  0.000000e+00
   outer loop
     vertex  1.051855e-01 -2.500000e-02 -1.069393e-01
     vertex -3.199494e-02 -2.500000e-02 -1.465480e-01
     vertex -2.223955e-02 -2.500000e-02 -1.483422e-01
   endloop
 endfacet
 facet normal  0.000000e+00 -1.000000e+00  0.000000e+00
   outer loop
     vertex  1.051855e-01 -2.500000e-02 -1.069393e-01
     vertex -2.223955e-02 -2.500000e-02 -1.483422e-01
     vertex -1.238690e-02 -2.500000e-02 -1.494877e-01
   endloop
 endfacet
 facet normal  0.000000e+00 -1.000000e+00  0.000000e+00
   outer loop
     vertex  1.051855e-01 -2.500000e-02 -1.069393e-01
     vertex -1.238690e-02 -2.500000e-02 -1.494877e-01
     vertex -2.480092e-03 -2.500000e-02 -1.499795e-01
   endloop
 endfacet
 facet normal  0.000000e+00 -1.000000e+00  0.000000e+00
   outer loop
     vertex  1.051855e-01 -2.500000e-02 -1.069393e-01
     vertex -2.480092e-03 -2.500000e-02 -1.499795e-01
     vertex  7.437563e-03 -2.500000e-02 -1.498155e-01
   endloop
 endfacet
 facet normal  0.000000e+00 -1.000000e+00  0.000000e+00
   outer loop
     vertex  1.051855e-01 -2.500000e-02 -1.069393e-01
     vertex  4.635255e-02 -2.500000e-02 -1.426585e-01
     vertex  8.204222e-02 -2.500000e-02 -1.255750e-01
   endloop
 endfacet
 facet normal  0.000000e+00 -1.000000e+00  0.000000e+00
   outer loop
     vertex  1.051855e-01 -2.500000e-02 -1.069393e-01
     vertex  3.682282e-02 -2.500000e-02 -1.454100e-01
     vertex  4.635255e-02 -2.500000e-02 -1.426585e-01
   endloop
 endfacet
 facet normal  0.000000e+00 -1.000000e+00  0.000000e+00
   outer loop
     vertex  1.051855e-01 -2.500000e-02 -1.069393e-01
     vertex  8.204222e-02 -2.500000e-02 -1.255750e-01
     vertex  9.016217e-02 -2.500000e-02 -1.198782e-01
   endloop
 endfacet
 facet normal  0.000000e+00 -1.000000e+00  0.000000e+00
   outer loop
     vertex  1.051855e-01 -2.500000e-02 -1.069393e-01
     vertex  9.016217e-02 -2.500000e-02 -1.198782e-01
     vertex  9.788786e-02 -2.500000e-02 -1.136572e-01
   endloop
 endfacet
 facet normal  0.000000e+00 -1.000000e+00  0.000000e+00
   outer loop
     vertex  1.051855e-01 -2.500000e-02 -1.069393e-01
     vertex  1.120232e-01 -2.500000e-02 -9.975369e-02
     vertex  1.183711e-01 -2.500000e-02 -9.213191e-02
   endloop
 endfacet
 facet normal  0.000000e+00 -1.000000e+00  0.000000e+00
   outer loop
     vertex  1.051855e-01 -2.500000e-02 -1.069393e-01
     vertex  1.183711e-01 -2.500000e-02 -9.213191e-02
     vertex  1.242013e-01 -2.500000e-02 -8.410726e-02
   endloop
 endfacet
 facet normal  0.000000e+00 -1.000000e+00  0.000000e+00
   outer loop
     vertex  1.051855e-01 -2.500000e-02 -1.069393e-01
     vertex  1.242013e-01 -2.500000e-02 -8.410726e-02
     vertex  1.294885e-01 -2.500000e-02 -7.571483e-02
   endloop
 endfacet
 facet normal  0.000000e+00 -1.000000e+00  0.000000e+00
   outer loop
     vertex  1.051855e-01 -2.500000e-02 -1.069393e-01
     vertex  1.294885e-01 -2.500000e-02 -7.571483e-02
     vertex  1.342094e-01 -2.500000e-02 -6.699132e-02
   endloop
 endfacet
 facet normal  0.000000e+00 -1.000000e+00  0.000000e+00
   outer loop
     vertex  1.051855e-01 -2.500000e-02 -1.069393e-01
     vertex  1.342094e-01 -2.500000e-02 -6.699132e-02
     vertex  1.383435e-01 -2.500000e-02 -5.797488e-02
   endloop
 endfacet
 facet normal  0.000000e+00 -1.000000e+00  0.000000e+00
   outer loop
     vertex  1.051855e-01 -2.500000e-02 -1.069393e-01
     vertex  1.383435e-01 -2.500000e-02 -5.797488e-02
     vertex  1.418726e-01 -2.500000e-02 -4.870492e-02
   endloop
 endfacet
 facet normal  0.000000e+00 -1.000000e+00  0.000000e+00
   outer loop
     vertex  1.051855e-01 -2.500000e-02 -1.069393e-01
     vertex  1.418726e-01 -2.500000e-02 -4.870492e-02
     vertex  1.447813e-01 -2.500000e-02 -3.922199e-02
   endloop
 endfacet
 facet normal  0.000000e+00 -1.000000e+00  0.000000e+00
   outer loop
     vertex  1.051855e-01 -2.500000e-02 -1.069393e-01
     vertex  1.447813e-01 -2.500000e-02 -3.922199e-02
     vertex  1.470570e-01 -2.500000e-02 -2.956755e-02
   endloop
 endfacet
 facet normal  0.000000e+00 -1.000000e+00  0.000000e+00
   outer loop
     vertex  1.051855e-01 -2.500000e-02 -1.069393e-01
     vertex  1.470570e-01 -2.500000e-02 -2.956755e-02
     vertex  1.486896e-01 -2.500000e-02 -1.978383e-02
   endloop
 endfacet
 facet normal  0.000000e+00 -1.000000e+00  0.000000e+00
   outer loop
     vertex  1.051855e-01 -2.500000e-02 -1.069393e-01
     vertex  1.486896e-01 -2.500000e-02 -1.978383e-02
     vertex  1.496720e-01 -2.500000e-02 -9.913588e-03
   endloop
 endfacet
 facet normal  0.000000e+00 -1.000000e+00  0.000000e+00
   outer loop
     vertex  1.051855e-01 -2.500000e-02 -1.069393e-01
     vertex  1.496720e-01 -2.500000e-02 -9.913588e-03
     vertex  1.500000e-01 -2.500000e-02  0.000000e+00
   endloop
 endfacet
 facet normal  0.000000e+00 -1.000000e+00  0.000000e+00
   outer loop
     vertex -1.152602e-01 -2.500000e-02 -9.599528e-02
     vertex -1.269143e-01 -2.500000e-02 -7.995476e-02
     vertex -1.213525e-01 -2.500000e-02 -8.816779e-02
   endloop
 endfacet
 facet normal  0.000000e+00 -1.000000e+00  0.000000e+00
   outer loop
     vertex -7.784544e-02 -2.500000e-02 -1.282189e-01
     vertex -1.015922e-01 -2.500000e-02 -1.103586e-01
     vertex -9.407645e-02 -2.500000e-02 -1.168316e-01
   endloop
 endfacet
 facet normal  0.000000e+00 -1.000000e+00  0.000000e+00
   outer loop
     vertex -7.784544e-02 -2.500000e-02 -1.282189e-01
     vertex -9.407645e-02 -2.500000e-02 -1.168316e-01
     vertex -8.614930e-02 -2.500000e-02 -1.227937e-01
   endloop
 endfacet
 facet normal  0.000000e+00 -1.000000e+00  0.000000e+00
   outer loop
     vertex  1.294885e-01 -2.500000e-02  7.571483e-02
     vertex  1.242013e-01 -2.500000e-02  8.410726e-02
     vertex  1.183711e-01 -2.500000e-02  9.213191e-02
   endloop
 endfacet
 facet normal  0.000000e+00 -1.000000e+00  0.000000e+00
   outer loop
     vertex  1.383435e-01 -2.500000e-02  5.797488e-02
     vertex  1.342094e-01 -2.500000e-02  6.699132e-02
     vertex  1.294885e-01 -2.500000e-02  7.571483e-02
   endloop
 endfacet
 facet normal  0.000000e+00 -1.000000e+00  0.000000e+00
   outer loop
     vertex  3.682282e-02 -2.500000e-02 -1.454100e-01
     vertex  7.437563e-03 -2.500000e-02 -1.498155e-01
     vertex  1.732270e-02 -2.500000e-02 -1.489964e-01
   endloop
 endfacet
 facet normal  0.000000e+00 -1.000000e+00  0.000000e+00
   outer loop
     vertex  3.682282e-02 -2.500000e-02 -1.454100e-01
     vertex  1.732270e-02 -2.500000e-02 -1.489964e-01
     vertex  2.713208e-02 -2.500000e-02 -1.475258e-01
   endloop
 endfacet
 facet normal  0.000000e+00 -1.000000e+00  0.000000e+00
   outer loop
     vertex  7.356353e-02 -2.500000e-02 -1.307226e-01
     vertex  5.567959e-02 -2.500000e-02 -1.392831e-01
     vertex  6.476315e-02 -2.500000e-02 -1.352987e-01
   endloop
 endfacet
 facet normal  0.000000e+00 -1.000000e+00  0.000000e+00
   outer loop
     vertex  8.204222e-02 -2.500000e-02 -1.255750e-01
     vertex  5.567959e-02 -2.500000e-02 -1.392831e-01
     vertex  7.356353e-02 -2.500000e-02 -1.307226e-01
   endloop
 endfacet
 facet normal  0.000000e+00 -1.000000e+00  0.000000e+00
   outer loop
     vertex  8.204222e-02 -2.500000e-02 -1.255750e-01
     vertex  4.635255e-02 -2.500000e-02 -1.426585e-01
     vertex  5.567959e-02 -2.500000e-02 -1.392831e-01
   endloop
 endfacet
 facet normal  0.000000e+00 -1.000000e+00  0.000000e+00
   outer loop
     vertex  1.051855e-01 -2.500000e-02 -1.069393e-01
     vertex  1.500000e-01 -2.500000e-02  0.000000e+00
     vertex  1.496720e-01 -2.500000e-02  9.913588e-03
   endloop
 endfacet
 facet normal  0.000000e+00 -1.000000e+00  0.000000e+00
   outer loop
     vertex  1.051855e-01 -2.500000e-02 -1.069393e-01
     vertex  1.496720e-01 -2.500000e-02  9.913588e-03
     vertex  1.486896e-01 -2.500000e-02  1.978383e-02
   endloop
 endfacet
 facet normal  0.000000e+00 -1.000000e+00  0.000000e+00
   outer loop
     vertex  1.051855e-01 -2.500000e-02 -1.069393e-01
     vertex -1.015922e-01 -2.500000e-02 -1.103586e-01
     vertex -7.784544e-02 -2.500000e-02 -1.282189e-01
   endloop
 endfacet
 facet normal  0.000000e+00 -1.000000e+00  0.000000e+00
   outer loop
     vertex  1.051855e-01 -2.500000e-02 -1.069393e-01
     vertex  1.486896e-01 -2.500000e-02  1.978383e-02
     vertex  1.470570e-01 -2.500000e-02  2.956755e-02
   endloop
 endfacet
 facet normal  0.000000e+00 -1.000000e+00  0.000000e+00
   outer loop
     vertex  1.051855e-01 -2.500000e-02 -1.069393e-01
     vertex  1.470570e-01 -2.500000e-02  2.956755e-02
     vertex  1.447813e-01 -2.500000e-02  3.922199e-02
   endloop
 endfacet
 facet normal  0.000000e+00 -1.000000e+00  0.000000e+00
   outer loop
     vertex  1.051855e-01 -2.500000e-02 -1.069393e-01
     vertex  1.447813e-01 -2.500000e-02  3.922199e-02
     vertex  1.418726e-01 -2.500000e-02  4.870492e-02
   endloop
 endfacet
 facet normal  0.000000e+00 -1.000000e+00  0.000000e+00
   outer loop
     vertex  1.051855e-01 -2.500000e-02 -1.069393e-01
     vertex  1.294885e-01 -2.500000e-02  7.571483e-02
     vertex  1.183711e-01 -2.500000e-02  9.213191e-02
   endloop
 endfacet
 facet normal  0.000000e+00 -1.000000e+00  0.000000e+00
   outer loop
     vertex  1.051855e-01 -2.500000e-02 -1.069393e-01
     vertex  1.418726e-01 -2.500000e-02  4.870492e-02
     vertex  1.383435e-01 -2.500000e-02  5.797488e-02
   endloop
 endfacet
 facet normal  0.000000e+00 -1.000000e+00  0.000000e+00
   outer loop
     vertex  1.051855e-01 -2.500000e-02 -1.069393e-01
     vertex  1.183711e-01 -2.500000e-02  9.213191e-02
     vertex  1.120232e-01 -2.500000e-02  9.975369e-02
   endloop
 endfacet
 facet normal  0.000000e+00 -1.000000e+00  0.000000e+00
   outer loop
     vertex  1.051855e-01 -2.500000e-02 -1.069393e-01
     vertex  1.120232e-01 -2.500000e-02  9.975369e-02
     vertex  1.051855e-01 -2.500000e-02  1.069393e-01
   endloop
 endfacet
 facet normal  0.000000e+00 -1.000000e+00  0.000000e+00
   outer loop
     vertex  1.051855e-01 -2.500000e-02 -1.069393e-01
     vertex  1.383435e-01 -2.500000e-02  5.797488e-02
     vertex  1.294885e-01 -2.500000e-02  7.571483e-02
   endloop
 endfacet
 facet normal  0.000000e+00 -1.000000e+00  0.000000e+00
   outer loop
     vertex  1.051855e-01 -2.500000e-02 -1.069393e-01
     vertex  1.051855e-01 -2.500000e-02  1.069393e-01
     vertex  9.788786e-02 -2.500000e-02  1.136572e-01
   endloop
 endfacet
 facet normal  0.000000e+00 -1.000000e+00  0.000000e+00
   outer loop
     vertex  1.051855e-01 -2.500000e-02 -1.069393e-01
     vertex  9.788786e-02 -2.500000e-02  1.136572e-01
     vertex  9.016217e-02 -2.500000e-02  1.198782e-01
   endloop
 endfacet
 facet normal  0.000000e+00 -1.000000e+00  0.000000e+00
   outer loop
     vertex  1.051855e-01 -2.500000e-02 -1.069393e-01
     vertex  9.016217e-02 -2.500000e-02  1.198782e-01
     vertex  8.204222e-02 -2.500000e-02  1.255750e-01
   endloop
 endfacet
 facet normal  0.000000e+00 -1.000000e+00  0.000000e+00
   outer loop
     vertex  1.051855e-01 -2.500000e-02 -1.069393e-01
     vertex  8.204222e-02 -2.500000e-02  1.255750e-01
     vertex  7.356353e-02 -2.500000e-02  1.307226e-01
   endloop
 endfacet
 facet normal  0.000000e+00 -1.000000e+00  0.000000e+00
   outer loop
     vertex  1.051855e-01 -2.500000e-02 -1.069393e-01
     vertex  7.356353e-02 -2.500000e-02  1.307226e-01
     vertex  6.476315e-02 -2.500000e-02  1.352987e-01
   endloop
 endfacet
 facet normal  0.000000e+00 -1.000000e+00  0.000000e+00
   outer loop
     vertex  1.051855e-01 -2.500000e-02 -1.069393e-01
     vertex  6.476315e-02 -2.500000e-02  1.352987e-01
     vertex  5.567959e-02 -2.500000e-02  1.392831e-01
   endloop
 endfacet
 facet normal  0.000000e+00 -1.000000e+00  0.000000e+00
   outer loop
     vertex  1.051855e-01 -2.500000e-02 -1.069393e-01
     vertex  5.567959e-02 -2.500000e-02  1.392831e-01
     vertex  4.635255e-02 -2.500000e-02  1.426585e-01
   endloop
 endfacet
 facet normal  0.000000e+00 -1.000000e+00  0.000000e+00
   outer loop
     vertex  1.051855e-01 -2.500000e-02 -1.069393e-01
     vertex  4.635255e-02 -2.500000e-02  1.426585e-01
     vertex  3.682282e-02 -2.500000e-02  1.454100e-01
   endloop
 endfacet
 facet normal  0.000000e+00 -1.000000e+00  0.000000e+00
   outer loop
     vertex  1.051855e-01 -2.500000e-02 -1.069393e-01
     vertex  3.682282e-02 -2.500000e-02  1.454100e-01
     vertex  2.713208e-02 -2.500000e-02  1.475258e-01
   endloop
 endfacet
 facet normal  0.000000e+00 -1.000000e+00  0.000000e+00
   outer loop
     vertex  1.051855e-01 -2.500000e-02 -1.069393e-01
     vertex  2.713208e-02 -2.500000e-02  1.475258e-01
     vertex  1.732270e-02 -2.500000e-02  1.489964e-01
   endloop
 endfacet
 facet normal  0.000000e+00 -1.000000e+00  0.000000e+00
   outer loop
     vertex  1.051855e-01 -2.500000e-02 -1.069393e-01
     vertex  1.732270e-02 -2.500000e-02  1.489964e-01
     vertex  7.437563e-03 -2.500000e-02  1.498155e-01
   endloop
 endfacet
 facet normal  0.000000e+00 -1.000000e+00  0.000000e+00
   outer loop
     vertex  1.051855e-01 -2.500000e-02 -1.069393e-01
     vertex  7.437563e-03 -2.500000e-02  1.498155e-01
     vertex -2.480092e-03 -2.500000e-02  1.499795e-01
   endloop
 endfacet
 facet normal  0.000000e+00 -1.000000e+00  0.000000e+00
   outer loop
     vertex  1.051855e-01 -2.500000e-02 -1.069393e-01
     vertex -2.480092e-03 -2.500000e-02  1.499795e-01
     vertex -1.238690e-02 -2.500000e-02  1.494877e-01
   endloop
 endfacet
 facet normal  0.000000e+00 -1.000000e+00  0.000000e+00
   outer loop
     vertex  1.051855e-01 -2.500000e-02 -1.069393e-01
     vertex -1.238690e-02 -2.500000e-02  1.494877e-01
     vertex -2.223955e-02 -2.500000e-02  1.483422e-01
   endloop
 endfacet
 facet normal  0.000000e+00 -1.000000e+00  0.000000e+00
   outer loop
     vertex  1.051855e-01 -2.500000e-02 -1.069393e-01
     vertex -2.223955e-02 -2.500000e-02  1.483422e-01
     vertex -3.199494e-02 -2.500000e-02  1.465480e-01
   endloop
 endfacet
 facet normal  0.000000e+00 -1.000000e+00  0.000000e+00
   outer loop
     vertex  1.051855e-01 -2.500000e-02 -1.069393e-01
     vertex -3.199494e-02 -2.500000e-02  1.465480e-01
     vertex -4.161044e-02 -2.500000e-02  1.441131e-01
   endloop
 endfacet
 facet normal  0.000000e+00 -1.000000e+00  0.000000e+00
   outer loop
     vertex  1.051855e-01 -2.500000e-02 -1.069393e-01
     vertex -4.161044e-02 -2.500000e-02  1.441131e-01
     vertex -5.104398e-02 -2.500000e-02  1.410479e-01
   endloop
 endfacet
 facet normal  0.000000e+00 -1.000000e+00  0.000000e+00
   outer loop
     vertex  1.051855e-01 -2.500000e-02 -1.069393e-01
     vertex -5.104398e-02 -2.500000e-02  1.410479e-01
     vertex -6.025431e-02 -2.500000e-02  1.373660e-01
   endloop
 endfacet
 facet normal  0.000000e+00 -1.000000e+00  0.000000e+00
   outer loop
     vertex  1.051855e-01 -2.500000e-02 -1.069393e-01
     vertex -6.025431e-02 -2.500000e-02  1.373660e-01
     vertex -6.920117e-02 -2.500000e-02  1.330834e-01
   endloop
 endfacet
 facet normal  0.000000e+00 -1.000000e+00  0.000000e+00
   outer loop
     vertex  1.051855e-01 -2.500000e-02 -1.069393e-01
     vertex -6.920117e-02 -2.500000e-02  1.330834e-01
     vertex -7.784544e-02 -2.500000e-02  1.282189e-01
   endloop
 endfacet
 facet normal  0.000000e+00 -1.000000e+00  0.000000e+00
   outer loop
     vertex  1.051855e-01 -2.500000e-02 -1.069393e-01
     vertex -7.784544e-02 -2.500000e-02  1.282189e-01
     vertex -8.614930e-02 -2.500000e-02  1.227937e-01
   endloop
 endfacet
 facet normal  0.000000e+00 -1.000000e+00  0.000000e+00
   outer loop
     vertex  1.051855e-01 -2.500000e-02 -1.069393e-01
     vertex -8.614930e-02 -2.500000e-02  1.227937e-01
     vertex -9.407645e-02 -2.500000e-02  1.168316e-01
   endloop
 endfacet
 facet normal  0.000000e+00 -1.000000e+00  0.000000e+00
   outer loop
     vertex  1.051855e-01 -2.500000e-02 -1.069393e-01
     vertex -9.407645e-02 -2.500000e-02  1.168316e-01
     vertex -1.015922e-01 -2.500000e-02  1.103586e-01
   endloop
 endfacet
 facet normal  0.000000e+00 -1.000000e+00  0.000000e+00
   outer loop
     vertex  1.051855e-01 -2.500000e-02 -1.069393e-01
     vertex -1.015922e-01 -2.500000e-02  1.103586e-01
     vertex -1.086638e-01 -2.500000e-02  1.034030e-01
   endloop
 endfacet
endsolid
